<svg id="Layer_1" data-name="Layer 1" xmlns="http://www.w3.org/2000/svg" xmlns:xlink="http://www.w3.org/1999/xlink" viewBox="0 0 555.37 509.39"><defs><style>.cls-1,.cls-60{fill:none;}.cls-2{clip-path:url(#clip-path);}.cls-3{fill:#1f1950;}.cls-4{clip-path:url(#clip-path-2);}.cls-5{fill:url(#linear-gradient);}.cls-6{clip-path:url(#clip-path-3);}.cls-7{fill:url(#linear-gradient-2);}.cls-8{clip-path:url(#clip-path-4);}.cls-9{fill:url(#linear-gradient-3);}.cls-10{clip-path:url(#clip-path-5);}.cls-11{fill:url(#linear-gradient-4);}.cls-12{clip-path:url(#clip-path-6);}.cls-13{fill:url(#linear-gradient-5);}.cls-14{fill:#f69159;}.cls-15{fill:#1f1a4e;}.cls-16{clip-path:url(#clip-path-8);}.cls-17{fill:url(#linear-gradient-6);}.cls-18{fill:#cf7961;}.cls-19{fill:#ffb84f;}.cls-20{fill:#f79f81;}.cls-21{fill:#403982;}.cls-22{opacity:0.57;}.cls-23{clip-path:url(#clip-path-10);}.cls-24{fill:#3960ac;}.cls-25{fill:#ade1f7;}.cls-26{clip-path:url(#clip-path-11);}.cls-27{opacity:0.25;}.cls-28{clip-path:url(#clip-path-12);}.cls-29{fill:#d1dbef;}.cls-30{clip-path:url(#clip-path-13);}.cls-31{fill:#3258a7;}.cls-32{fill:#1e4380;}.cls-33{fill:#fff;}.cls-34{fill:#d37444;}.cls-35{clip-path:url(#clip-path-14);}.cls-36{fill:url(#linear-gradient-7);}.cls-37{fill:#e3e3e3;}.cls-38{clip-path:url(#clip-path-16);}.cls-39{fill:url(#linear-gradient-8);}.cls-40{fill:#ffd788;}.cls-41{fill:#f4825d;}.cls-42{fill:#104ab2;}.cls-43{opacity:0.46;}.cls-44{clip-path:url(#clip-path-18);}.cls-45{clip-path:url(#clip-path-19);}.cls-46{fill:#709480;}.cls-47{fill:#b4c6b6;}.cls-48{fill:#f1eadf;}.cls-49{clip-path:url(#clip-path-20);}.cls-50{fill:url(#linear-gradient-9);}.cls-51{clip-path:url(#clip-path-21);}.cls-52{fill:url(#linear-gradient-10);}.cls-53{clip-path:url(#clip-path-22);}.cls-54{fill:url(#linear-gradient-11);}.cls-55{clip-path:url(#clip-path-23);}.cls-56{fill:url(#linear-gradient-12);}.cls-57{fill:#373175;}.cls-58{fill:#242259;}.cls-59{fill:#413a82;}.cls-60{stroke:#221f1f;stroke-linecap:round;stroke-miterlimit:10;stroke-width:0.44px;}.cls-61{fill:#f9fcff;}</style><clipPath id="clip-path" transform="translate(-51.93 -3.42)"><rect class="cls-1" x="4.6" y="-8.47" width="600" height="600"/></clipPath><clipPath id="clip-path-2" transform="translate(-51.93 -3.42)"><polygon class="cls-1" points="262.57 506.56 253.18 506.56 208.95 383.36 218.34 383.36 262.57 506.56"/></clipPath><linearGradient id="linear-gradient" x1="-0.07" y1="600.04" x2="0.93" y2="600.04" gradientTransform="matrix(-123.19, 0, 0, 123.19, 297.45, -73475.15)" gradientUnits="userSpaceOnUse"><stop offset="0" stop-color="#242259"/><stop offset="1" stop-color="#986dae"/></linearGradient><clipPath id="clip-path-3" transform="translate(-51.93 -3.42)"><polygon class="cls-1" points="186.84 506.56 196.23 506.56 207.28 383.36 197.89 383.36 186.84 506.56"/></clipPath><linearGradient id="linear-gradient-2" x1="-0.07" y1="600.04" x2="0.93" y2="600.04" gradientTransform="matrix(-123.19, 0, 0, 123.19, 259.05, -73475.15)" xlink:href="#linear-gradient"/><clipPath id="clip-path-4" transform="translate(-51.93 -3.42)"><polygon class="cls-1" points="131.56 506.56 140.94 506.56 185.17 383.36 175.78 383.36 131.56 506.56"/></clipPath><linearGradient id="linear-gradient-3" x1="-0.07" y1="600.04" x2="0.93" y2="600.04" gradientTransform="matrix(-123.19, 0, 0, 123.19, 220.68, -73475.15)" xlink:href="#linear-gradient"/><clipPath id="clip-path-5" transform="translate(-51.93 -3.42)"><path class="cls-1" d="M142.67,296.2a2.23,2.23,0,0,0-2.23,2.23v82.47a3.55,3.55,0,0,0,3.55,3.55H228.7V301.62a5.42,5.42,0,0,0-5.42-5.42Z"/></clipPath><linearGradient id="linear-gradient-4" x1="0.08" y1="600.02" x2="1.08" y2="600.02" gradientTransform="matrix(117.54, 0, 0, -117.54, 104.1, 70868.59)" gradientUnits="userSpaceOnUse"><stop offset="0" stop-color="#f79b5e"/><stop offset="0.29" stop-color="#faad60"/><stop offset="0.71" stop-color="#fec162"/><stop offset="1" stop-color="#ffc863"/></linearGradient><clipPath id="clip-path-6" transform="translate(-51.93 -3.42)"><path class="cls-1" d="M178.85,384.46v11.75h75.51a4.36,4.36,0,0,0,4.36-4.36v-3a4.36,4.36,0,0,0-4.36-4.36Z"/></clipPath><linearGradient id="linear-gradient-5" x1="0.08" y1="600.01" x2="1.08" y2="600.01" gradientTransform="matrix(117.57, 0, 0, -117.57, 151.9, 70935.82)" xlink:href="#linear-gradient-4"/><clipPath id="clip-path-8" transform="translate(-51.93 -3.42)"><path class="cls-1" d="M328.83,188.42A94.81,94.81,0,0,0,384,274.54l.43-11.82-5.84-.65a2.55,2.55,0,0,1-1.68-4.16,4.46,4.46,0,0,0-.29-6l-.19-.19a6,6,0,0,1-1.53-5.92l10.7-36.89a27.08,27.08,0,0,1,21.05-19.08l29.19-5.43,6.27.39a21.77,21.77,0,0,1,20.38,20.62l2.4,47.16a12.49,12.49,0,0,1-6.67,11.69l-9.95,5.21-1.74,11a94.8,94.8,0,1,0-117.68-92"/></clipPath><linearGradient id="linear-gradient-6" x1="-0.04" y1="599.98" x2="0.96" y2="599.98" gradientTransform="matrix(-242.69, 0, 0, 242.69, 533.15, -145419.45)" gradientUnits="userSpaceOnUse"><stop offset="0" stop-color="#fff4fb"/><stop offset="1" stop-color="#c6d6ee"/></linearGradient><clipPath id="clip-path-10" transform="translate(-51.93 -3.42)"><rect class="cls-1" x="247.37" y="156.49" width="90.98" height="46.74"/></clipPath><clipPath id="clip-path-11" transform="translate(-51.93 -3.42)"><rect class="cls-1" x="296.74" y="83.52" width="90.98" height="46.74"/></clipPath><clipPath id="clip-path-12" transform="translate(-51.93 -3.42)"><rect class="cls-1" x="51.93" y="199.3" width="94.98" height="32.6"/></clipPath><clipPath id="clip-path-13" transform="translate(-51.93 -3.42)"><rect class="cls-1" x="443" y="302.17" width="94.98" height="32.6"/></clipPath><clipPath id="clip-path-14" transform="translate(-51.93 -3.42)"><path class="cls-1" d="M272.78,228.05a8.27,8.27,0,0,0-8.26,7.81l-3,49.28a8.27,8.27,0,0,0,8.26,8.74H345.7a8.27,8.27,0,0,0,8.26-7.81l3-49.28a8.27,8.27,0,0,0-8.26-8.74Z"/></clipPath><linearGradient id="linear-gradient-7" x1="-0.09" y1="599.98" x2="0.91" y2="599.98" gradientTransform="matrix(-106.42, 0, 0, 106.42, 364.18, -63591.11)" gradientUnits="userSpaceOnUse"><stop offset="0" stop-color="#fad05a"/><stop offset="0.05" stop-color="#fad05a"/><stop offset="0.33" stop-color="#fac85a"/><stop offset="0.76" stop-color="#f9b259"/><stop offset="1" stop-color="#f8a359"/></linearGradient><clipPath id="clip-path-16" transform="translate(-51.93 -3.42)"><path class="cls-1" d="M314.13,299.71a5.35,5.35,0,1,1,5.35,5.35,5.36,5.36,0,0,1-5.35-5.35M305.43,261a5.85,5.85,0,0,0-5.86,5.86v8.4l1.43,5.23h0l8.94,32.82a3.82,3.82,0,0,1-3.42,4.81h21.88a6.27,6.27,0,0,0,6.05-7.92l-9.52-34.94h-.08v-8.4A5.86,5.86,0,0,0,319,261Z"/></clipPath><linearGradient id="linear-gradient-8" x1="-0.09" y1="599.98" x2="0.91" y2="599.98" gradientTransform="matrix(-106.42, 0, 0, 106.42, 388.08, -63562.93)" xlink:href="#linear-gradient-7"/><clipPath id="clip-path-18" transform="translate(-51.93 -3.42)"><rect class="cls-1" x="101.05" y="335.11" width="54.25" height="9.99"/></clipPath><clipPath id="clip-path-19" transform="translate(-51.93 -3.42)"><rect class="cls-1" x="311.19" y="335.11" width="54.25" height="9.99"/></clipPath><clipPath id="clip-path-20" transform="translate(-51.93 -3.42)"><path class="cls-1" d="M93.36,397.45a7.31,7.31,0,0,0-2.4,4c-.56,2.62.26,5.73-.2,8.42-.57,3.37-2.71,4.33-4.16,6.46-1.71,2.52-2.5,7.23-1.87,11.25a58.4,58.4,0,0,0,1.87,6.86,16.06,16.06,0,0,1,.51,7.45c-.81,3.58-5.16,6.36-5.16,21.52,0,13.84,9.88,19.22,12.68,22.61V396.22Z"/></clipPath><linearGradient id="linear-gradient-9" x1="0.09" y1="599.95" x2="1.09" y2="599.95" gradientTransform="matrix(0, -89.75, -89.75, 0, 53879.82, 491.01)" xlink:href="#linear-gradient"/><clipPath id="clip-path-21" transform="translate(-51.93 -3.42)"><path class="cls-1" d="M94.46,486c2.8-3.39,12.68-8.77,12.68-22.61,0-15.16-4.35-17.94-5.16-21.52a16,16,0,0,1,.51-7.45,58.59,58.59,0,0,0,1.87-6.86c.63-4-.15-8.73-1.87-11.25-1.45-2.12-3.58-3.09-4.16-6.46-.46-2.69.35-5.8-.2-8.42a7.32,7.32,0,0,0-2.4-4l-1.27-1.23Z"/></clipPath><linearGradient id="linear-gradient-10" x1="0.09" y1="599.95" x2="1.09" y2="599.95" gradientTransform="matrix(0, -89.75, -89.75, 0, 53892.33, 491.01)" xlink:href="#linear-gradient"/><clipPath id="clip-path-22" transform="translate(-51.93 -3.42)"><path class="cls-1" d="M109.91,450.26a3.87,3.87,0,0,0-2.42,1.15c-.75,1-.42,2.47-1.09,3.51-.85,1.3-2.72,1.24-4.15,1.83a4.59,4.59,0,0,0-2.78,4.34,17.07,17.07,0,0,0,.79,3.29,3.77,3.77,0,0,1-.4,3.25c-1.07,1.33-5,1.57-6.63,8-1.52,5.83,6.07,10.24,8,12.27L111.09,450Z"/></clipPath><linearGradient id="linear-gradient-11" x1="-0.27" y1="600.07" x2="0.73" y2="600.07" gradientTransform="matrix(-34.73, 0, 0, 34.73, 118.68, -20373.51)" gradientUnits="userSpaceOnUse"><stop offset="0" stop-color="#fdf4b6"/><stop offset="1" stop-color="#d07e2b"/></linearGradient><clipPath id="clip-path-23" transform="translate(-51.93 -3.42)"><path class="cls-1" d="M101.1,487.82c2.69-.83,11.47-1,13-6.8,1.67-6.39-1.63-8.5-1.91-10.18a3.77,3.77,0,0,1,1.24-3,17,17,0,0,0,2.3-2.49,4.59,4.59,0,0,0-.31-5.14c-1-1.21-2.63-2.08-2.74-3.62-.08-1.24.93-2.37.76-3.59a3.88,3.88,0,0,0-1.56-2.18L111,450Z"/></clipPath><linearGradient id="linear-gradient-12" x1="-0.27" y1="599.99" x2="0.73" y2="599.99" gradientTransform="matrix(-34.73, 0, 0, 34.73, 124.07, -20370.51)" xlink:href="#linear-gradient-11"/></defs><title>Customer Support</title><g class="cls-2"><rect class="cls-3" x="106.42" y="437.74" width="75.4" height="11.07"/><g class="cls-4"><rect class="cls-5" x="173.94" y="417.64" width="123.64" height="54.63" transform="translate(-263.06 673.61) rotate(-89.53)"/></g><g class="cls-6"><rect class="cls-7" x="135.38" y="434.23" width="123.37" height="21.46" transform="translate(-301.44 634.91) rotate(-89.53)"/></g><g class="cls-8"><rect class="cls-9" x="96.54" y="417.64" width="123.64" height="54.63" transform="translate(-339.82 596.22) rotate(-89.53)"/></g><g class="cls-10"><rect class="cls-11" x="122.22" y="277.98" width="124.69" height="124.69" transform="translate(-243.15 243.79) rotate(-47.61)"/></g><g class="cls-12"><rect class="cls-13" x="187.52" y="356.88" width="62.53" height="66.91" transform="translate(-268.94 285.36) rotate(-47.61)"/></g><g class="cls-2"><path class="cls-14" d="M146.78,371.84V301.18a5,5,0,1,0-10,0v71.59a23.45,23.45,0,0,0,23.45,23.45h17.23a5.88,5.88,0,1,0,0-11.75h-18.1a12.63,12.63,0,0,1-12.63-12.63" transform="translate(-51.93 -3.42)"/><path class="cls-15" d="M424.53,95.83a94.81,94.81,0,0,0-25,186.25l.54.14a94.28,94.28,0,0,0,10.4,2.16A94.8,94.8,0,1,0,424.53,95.83" transform="translate(-51.93 -3.42)"/></g><g class="cls-16"><rect class="cls-17" x="292.02" y="55.72" width="263.21" height="262.6" transform="translate(-80.88 281.62) rotate(-36.04)"/></g><g class="cls-2"><path class="cls-18" d="M397.08,264.14l-12.68-1.42L384,274.54a94.08,94.08,0,0,0,14.62,5.33Z" transform="translate(-51.93 -3.42)"/><path class="cls-19" d="M464.86,252.55l-2.4-47.16a21.78,21.78,0,0,0-20.38-20.62l-6.27-.39-29.19,5.43a27.08,27.08,0,0,0-21.05,19.08l-10.7,36.89a6,6,0,0,0,1.53,5.92l.19.19a4.46,4.46,0,0,1,.29,6,2.55,2.55,0,0,0,1.68,4.16l5.84.65,12.68,1.42L386.5,263l1.73-11.84,5-33.91c-.49,4.55,1.14,21.66,2.44,33.91.78,7.4,1.45,13,1.45,13l1.52,15.73.54.15a94.34,94.34,0,0,0,10.4,2.16c5.64-8.3,16.76-25.78,16-33.4-1-10.18,13.57-46.49,13.57-46.49s3.73,21.72,2.57,32.61-4.94,16.77-2.73,24.91a13.28,13.28,0,0,0,9.3,9.65l9.94-5.21a12.48,12.48,0,0,0,6.67-11.69" transform="translate(-51.93 -3.42)"/><path class="cls-14" d="M393.19,217.21l-5,33.91L386.5,263l10.58,1.18s-.66-5.62-1.45-13c-1.3-12.25-2.93-29.36-2.44-33.91" transform="translate(-51.93 -3.42)"/><path class="cls-14" d="M438.94,259.8c-2.21-8.14,1.57-14,2.73-24.91s-2.57-32.61-2.57-32.61-14.59,36.31-13.57,46.49c.76,7.62-10.36,25.1-16,33.4a95.4,95.4,0,0,0,37-1.75l1.74-11a13.28,13.28,0,0,1-9.3-9.66" transform="translate(-51.93 -3.42)"/><path class="cls-20" d="M414.51,194.47c9.32,3,20.2-10.86,20.2-10.86l-6.27-24.71-21.36,2.47s3.23,31.74,7.42,33.1" transform="translate(-51.93 -3.42)"/><polygon class="cls-18" points="358.13 178.79 368.73 165.57 354.44 158.41 358.13 178.79"/><path class="cls-20" d="M393.3,148.64c.58,11.75,3.05,26.18,11.9,26.76,11.74.77,25.89-12.9,26.92-24.61s5.36-31.19-10.52-32.59c-23.08-2-29.31,9.68-28.29,30.44" transform="translate(-51.93 -3.42)"/><path class="cls-21" d="M428.51,140.68c2.71-3.65,13.57-4.5,11.28-9.84s-4-10.38-4-10.38-2-13.24-19.24-9c-26.64,6.57-25.64,8.24-22.61,23.49,0,0,14.36,1.84,26-4.93,0,0,.4,8.16,5.17,12.32l-.83,8.73,1.48.57h0s.05-7.32,2.77-11" transform="translate(-51.93 -3.42)"/><path class="cls-15" d="M435.8,120.46s1.7,5,4,10.38-8.57,6.19-11.28,9.84-2.77,11-2.77,11h0l10.07,3.89c14.55-17.4,20.09-21.16,0-35.1" transform="translate(-51.93 -3.42)"/><path class="cls-20" d="M425.74,151.65c-1.72,4.53-.25,9.29,3.27,10.62s7.77-1.26,9.48-5.8.25-9.29-3.27-10.62-7.77,1.26-9.48,5.8" transform="translate(-51.93 -3.42)"/><path class="cls-15" d="M432.39,173.89l-8.68-2.71a1.31,1.31,0,0,1-.86-1.63l6.5-20.86a1.3,1.3,0,0,1,1.64-.86l8.68,2.7a1.31,1.31,0,0,1,.86,1.64L434,173a1.31,1.31,0,0,1-1.63.86" transform="translate(-51.93 -3.42)"/><path class="cls-21" d="M434.52,174.56l-9.07-2.83a1.3,1.3,0,0,1-.86-1.63l6.5-20.86a1.31,1.31,0,0,1,1.64-.86l9.07,2.83a1.3,1.3,0,0,1,.86,1.64l-6.5,20.86a1.31,1.31,0,0,1-1.64.86" transform="translate(-51.93 -3.42)"/><path class="cls-15" d="M434.78,152.26a1.24,1.24,0,1,1-.81-1.55,1.24,1.24,0,0,1,.81,1.55" transform="translate(-51.93 -3.42)"/><path class="cls-20" d="M458.42,249.45l-15.45-61s-3.22-12.23-2.67-14,5.09-14.54,5-15.86-6.66-6.79-7.25-7.17-4.5.85-4.75,2.33,1.31,7.39,1.23,8.13c0,0-.64,7.13,0,9.7s7.35,88.12,14.38,90.24a7.83,7.83,0,0,0,4.32-.77l0,0a10,10,0,0,0,5.2-11.54" transform="translate(-51.93 -3.42)"/><path class="cls-18" d="M434.49,171.54c-.64-2.57,0-9.7,0-9.7-.08.74-3.12,6.26-2,9.35s.95,22.86.94,24.56c0,1.24,1.19,16.58,2.3,27.63l0,.42.06.56q.07.74.15,1.48c.32,3,.62,5.55.88,7.12v0a119,119,0,0,0,5.5,23.79,7.74,7.74,0,0,0,6.5,5c-7-2.12-13.74-87.67-14.38-90.24" transform="translate(-51.93 -3.42)"/><path class="cls-15" d="M465.69,138.22l.36-.08c5.62,3.36,9.27,3.2,11.11.34l.06-.09c1.56-2.43.78-5.32-2.34-7.32-2.73-1.75-5.77-2-9.27-1.11l-1-5.56a15.7,15.7,0,0,1,13.54,1.9c6.07,3.9,8,9.92,4.54,15.34l-.06.09c-3.51,5.46-9,5.4-14.38,3.13l-2.66,3.19L462,145.8Zm-7.24,10.41,5.81,3.73-3.84,6-5.81-3.73Z" transform="translate(-51.93 -3.42)"/><path class="cls-20" d="M310.11,307c-1.75-.7-18.79,1.8-18.79,1.8l-42.87-8.29-15.95,2.73c16.06,14.9,44.49,11.52,54.25,9.8H287c3.14,0,10.48,2.92,12.32,2.76s9,1.37,11,1.37,6.3-4.2,6.27-4.71-4.74-4.77-6.49-5.47" transform="translate(-51.93 -3.42)"/><g class="cls-22"><g class="cls-23"><path class="cls-24" d="M247.37,203.23l11.24-11.09h71.16c4.74,0,8.58-4.73,8.58-10.57V167.06c0-5.84-3.84-10.57-8.58-10.57H256c-4.74,0-8.58,4.73-8.58,10.57Z" transform="translate(-51.93 -3.42)"/></g></g><rect class="cls-25" x="214.12" y="161.16" width="61.4" height="1.44"/><rect class="cls-25" x="214.12" y="169.32" width="61.4" height="1.44"/><rect class="cls-25" x="214.12" y="177.48" width="61.4" height="1.44"/><g class="cls-22"><g class="cls-26"><path class="cls-24" d="M387.72,130.27l-11.24-11.09H305.32c-4.74,0-8.58-4.73-8.58-10.57V94.1c0-5.84,3.84-10.57,8.58-10.57h73.82c4.74,0,8.58,4.73,8.58,10.57Z" transform="translate(-51.93 -3.42)"/></g></g><rect class="cls-25" x="255.7" y="88.2" width="61.4" height="1.44"/><rect class="cls-25" x="255.7" y="96.36" width="61.4" height="1.44"/><rect class="cls-25" x="255.7" y="104.51" width="61.4" height="1.44"/><g class="cls-27"><g class="cls-28"><path class="cls-29" d="M140.51,231.91H58.32a6.39,6.39,0,0,1-6.39-6.39V205.7a6.39,6.39,0,0,1,6.39-6.39h82.19a6.39,6.39,0,0,1,6.39,6.39v19.82a6.39,6.39,0,0,1-6.39,6.39" transform="translate(-51.93 -3.42)"/></g></g><path class="cls-25" d="M130.12,208.53H68.72a1.08,1.08,0,0,1,0-2.16h61.4a1.08,1.08,0,1,1,0,2.16" transform="translate(-51.93 -3.42)"/><path class="cls-25" d="M130.12,216.69H68.72a1.08,1.08,0,0,1,0-2.16h61.4a1.08,1.08,0,1,1,0,2.16" transform="translate(-51.93 -3.42)"/><path class="cls-25" d="M130.12,224.84H68.72a1.08,1.08,0,0,1,0-2.16h61.4a1.08,1.08,0,1,1,0,2.16" transform="translate(-51.93 -3.42)"/><g class="cls-27"><g class="cls-30"><path class="cls-29" d="M531.58,334.78H449.39a6.39,6.39,0,0,1-6.39-6.39V308.57a6.39,6.39,0,0,1,6.39-6.39h82.19a6.39,6.39,0,0,1,6.39,6.39v19.82a6.39,6.39,0,0,1-6.39,6.39" transform="translate(-51.93 -3.42)"/></g></g><path class="cls-25" d="M521.19,311.4h-61.4a1.08,1.08,0,1,1,0-2.16h61.4a1.08,1.08,0,1,1,0,2.16" transform="translate(-51.93 -3.42)"/><path class="cls-25" d="M521.19,319.56h-61.4a1.08,1.08,0,1,1,0-2.16h61.4a1.08,1.08,0,1,1,0,2.16" transform="translate(-51.93 -3.42)"/><path class="cls-25" d="M521.19,327.71h-61.4a1.08,1.08,0,1,1,0-2.16h61.4a1.08,1.08,0,1,1,0,2.16" transform="translate(-51.93 -3.42)"/><path class="cls-31" d="M261.73,339.25H235.22L218.69,480.63l10.37.26c30.76-82.3,36.77-119.33,39.3-133.75a6.73,6.73,0,0,0-6.63-7.9" transform="translate(-51.93 -3.42)"/><path class="cls-32" d="M218.69,480.63s33.31-80.83,25.75-132c-.48-3.26-9.22-9.4-9.22-9.4Z" transform="translate(-51.93 -3.42)"/><path class="cls-31" d="M236.06,339.25l-14.15-.71-4-18.09L165,325.29l-6.55,20.48c-5.65,17.67-.66,24,18.62,25.3l21.23,3.51L158.46,481.2h11.25c38.1-58.56,67.16-110.85,74.36-130.44a8.55,8.55,0,0,0-8-11.52" transform="translate(-51.93 -3.42)"/><path class="cls-32" d="M204.88,362.89c-12.87,3.15-26.42-1.32-29.07-9.39-3-9.15,4.65-14.25,4.65-14.25l-5.64-15.15L165,325.29l-6.55,20.48c-5.65,17.67.76,24.7,18.93,27.21l20.91,1.6L160.68,475.49c54.71-87.06,44.21-112.61,44.21-112.61" transform="translate(-51.93 -3.42)"/><polygon class="cls-20" points="166.76 477.19 177.13 477.45 175.31 483.83 165.64 483.83 166.76 477.19"/><polygon class="cls-20" points="117.79 477.76 114.87 483.39 104.34 483.39 106.53 477.76 117.79 477.76"/><path class="cls-21" d="M222.43,502.94a11.51,11.51,0,0,0,6.33,5c1.4.19,6,.25,6,.25s-.57-6.94,3-8.29c-1.71-1-3.35-1.49-4.12-2-1.95-1.42-6-12-6-12l-10-.21-4.26,10.06s7.72,4.77,9,7.28" transform="translate(-51.93 -3.42)"/><path class="cls-33" d="M221.53,504.79c2.31,3.6,5.09,4.85,10.48,5.25a76.4,76.4,0,0,0,11.15-.15c0-5.83-2.76-8.5-5.37-10-3.57,1.35-3,8.29-3,8.29s-4.61-.06-6-.25a11.5,11.5,0,0,1-6.33-5c-1.27-2.51-9-7.28-9-7.28l-.56,1.33s6.35,4.2,8.65,7.79" transform="translate(-51.93 -3.42)"/><path class="cls-21" d="M158,498.63c1.65,1.44,5.34,7.13,6.83,8.57s7.21,1.32,7.21,1.32a9.33,9.33,0,0,1,5-8.46h0c-1.63-.87-3.18-1.32-3.92-1.86-1.95-1.42-5.83-12.07-5.83-12.07L156.51,486l-3.81,9.71a25.51,25.51,0,0,1,5.25,3" transform="translate(-51.93 -3.42)"/><path class="cls-33" d="M160.94,505.15c2.31,3.6,5.09,4.85,10.48,5.25a62.91,62.91,0,0,0,11.15-.36c0-6-2.91-8.56-5.58-10a9.33,9.33,0,0,0-5,8.46s-5.73.13-7.21-1.31-5.18-7.13-6.83-8.57a25.49,25.49,0,0,0-5.25-3l-.63,1.6s6.56,4.29,8.87,7.89" transform="translate(-51.93 -3.42)"/><path class="cls-15" d="M248.33,295.16c-1.37-2.33-3.7-9-5.87-15.7-1.69-5.73-3.53-11.77-5.3-17.26h0c-3.08-9.53-6-17.38-7.57-19-4.55-4.54-14.66,30.27-14.66,30.27l10.23,17.33c2.79,5.44,5.51,10.65,5.92,11.21.88,1.21,3,5.5,14.65,9.35s25.71,3.23,25.71,3.23l1.93-9.27s-21.29-3.84-25-10.19" transform="translate(-51.93 -3.42)"/><path class="cls-21" d="M227.36,241.64,214,236.25H192.17l-18.37,5.46a10.54,10.54,0,0,0-7.26,12.53l7.51,42.44-8.7,29.53h54.07l-4.15-30,.13-.41a11.58,11.58,0,0,1,5.83-6.84c5-2.45,7.89-5.78,8.3-9.33a18.12,18.12,0,0,0-.32-5.23A51.45,51.45,0,0,1,230.78,249a5.94,5.94,0,0,0-3.42-7.35" transform="translate(-51.93 -3.42)"/><path class="cls-15" d="M222.49,290.5a13,13,0,0,0,6.53-8.76s-6.63,6-29.62,3.81c-26.52-2.47-10,17.13-19.45,40.66h39.47s-3.78-27.81-3.23-29.43,3.46-4.85,6.3-6.28" transform="translate(-51.93 -3.42)"/><polygon class="cls-15" points="126.29 273.07 120.68 285.04 118.77 276.72 126.29 273.07"/><path class="cls-21" d="M167.12,299.46c-.68-.25-1.19-4.13,1-7.62,2.31-3.68,10.1-15.34,10.1-15.34s-6-33.71-9.4-31.54-21.72,45.75-24.6,55.82c-.36,5.9,1.93,10.76,14.17,13a249.37,249.37,0,0,0,27,2.8c10.64.64,19.51.83,20.06.84h0l1.45-12.86s-38.39-4.58-39.79-5.09" transform="translate(-51.93 -3.42)"/><rect class="cls-19" x="171.05" y="309.07" width="77.88" height="5.53"/><path class="cls-34" d="M269.19,318H252.12a8.53,8.53,0,0,1,17.07,0" transform="translate(-51.93 -3.42)"/><path class="cls-20" d="M264.85,307.14c-2-.85-19.08,1.68-19.08,1.68l-38.86-4.28-1.45,12.86c23.64,0,43.34-3,44.27-2.86l.06,0,.22,0h.05a9.73,9.73,0,0,0,1.78.07,11.45,11.45,0,0,0,2.74-.43l.23-.06h0c.67-.18,1.18-.35,1.42-.41.69-.16,2.63,1.14,4,2.29s4.92.64,6.32.31,4-3.45,3.89-4.25-3.68-4.12-5.63-5" transform="translate(-51.93 -3.42)"/><path class="cls-34" d="M340.95,293.88H265.07a8.27,8.27,0,0,1-8.26-8.74l3-49.28a8.27,8.27,0,0,1,8.26-7.81h75.88a8.27,8.27,0,0,1,8.26,8.74l-3,49.28a8.27,8.27,0,0,1-8.26,7.81" transform="translate(-51.93 -3.42)"/></g><g class="cls-35"><rect class="cls-36" x="252.63" y="203.35" width="113.22" height="115.23" transform="translate(-143.81 310.73) rotate(-47.71)"/></g><g class="cls-2"><path class="cls-34" d="M329,310.52l-9.61-35.27h1.59v-8.4a5.86,5.86,0,0,0-5.86-5.86H301.53a5.86,5.86,0,0,0-5.86,5.86v8.4l9.94,36.35a1.87,1.87,0,0,1-1.81,2.37h-23.1v4.15h42.46a6,6,0,0,0,5.8-7.59m-11.43-5.46a5.35,5.35,0,1,1,5.35-5.35,5.35,5.35,0,0,1-5.35,5.35" transform="translate(-51.93 -3.42)"/><path class="cls-37" d="M319,261H305.43a5.86,5.86,0,0,0-5.86,5.86v8.4h25.27v-8.4A5.86,5.86,0,0,0,319,261" transform="translate(-51.93 -3.42)"/><path class="cls-37" d="M334.44,310.19l-9.52-34.94H299.57l1.43,5.23h0l8.94,32.82a3.82,3.82,0,0,1-3.42,4.82h21.88a6.27,6.27,0,0,0,6.05-7.92m-15-5.13a5.35,5.35,0,1,1,5.35-5.35,5.35,5.35,0,0,1-5.35,5.35" transform="translate(-51.93 -3.42)"/></g><g class="cls-38"><rect class="cls-39" x="284.32" y="257.04" width="66.45" height="65.03" transform="translate(-162.25 326.23) rotate(-47.71)"/></g><g class="cls-2"><path class="cls-40" d="M334.44,310.55a.36.36,0,0,1-.35-.27l-9.46-34.75a.36.36,0,0,1-.14-.29v-8.4a5.5,5.5,0,0,0-5.49-5.49H305.43a.36.36,0,1,1,0-.72H319a6.22,6.22,0,0,1,6.22,6.22V275a.36.36,0,0,1,.07.13l9.52,34.94a.36.36,0,0,1-.25.44h-.1" transform="translate(-51.93 -3.42)"/><path class="cls-40" d="M328.38,318.48a.36.36,0,0,1,0-.72,5.91,5.91,0,0,0,5.71-7.47l-9.52-34.94a.36.36,0,0,1,.7-.19l9.52,34.94a6.63,6.63,0,0,1-6.4,8.38" transform="translate(-51.93 -3.42)"/><path class="cls-41" d="M332.23,272h0a.6.6,0,0,1-.56-.63l1.63-29.13a.59.59,0,0,1,.63-.56.6.6,0,0,1,.56.63l-1.63,29.13a.6.6,0,0,1-.59.56" transform="translate(-51.93 -3.42)"/><path class="cls-41" d="M336.12,272h0a.6.6,0,0,1-.56-.63l1.63-29.13a.59.59,0,0,1,.63-.56.6.6,0,0,1,.56.63l-1.63,29.13a.6.6,0,0,1-.59.56" transform="translate(-51.93 -3.42)"/><path class="cls-41" d="M340,272h0a.6.6,0,0,1-.56-.63L341,242.24a.59.59,0,0,1,.63-.56.6.6,0,0,1,.56.63l-1.63,29.13a.6.6,0,0,1-.59.56" transform="translate(-51.93 -3.42)"/><path class="cls-41" d="M343.88,272h0a.6.6,0,0,1-.56-.63l1.63-29.13a.58.58,0,0,1,.63-.56.6.6,0,0,1,.56.63l-1.63,29.13a.6.6,0,0,1-.59.56" transform="translate(-51.93 -3.42)"/><path class="cls-41" d="M347.77,272h0a.6.6,0,0,1-.56-.63l1.63-29.13a.6.6,0,0,1,1.19.07l-1.63,29.13a.6.6,0,0,1-.59.56" transform="translate(-51.93 -3.42)"/><path class="cls-41" d="M271.66,272h0a.6.6,0,0,1-.56-.63l1.63-29.13a.59.59,0,0,1,.63-.56.59.59,0,0,1,.56.63l-1.63,29.13a.6.6,0,0,1-.59.56" transform="translate(-51.93 -3.42)"/><path class="cls-41" d="M275.54,272h0a.59.59,0,0,1-.56-.63l1.63-29.13a.58.58,0,0,1,.63-.56.59.59,0,0,1,.56.63l-1.63,29.13a.6.6,0,0,1-.59.56" transform="translate(-51.93 -3.42)"/><path class="cls-41" d="M279.42,272h0a.6.6,0,0,1-.56-.63l1.63-29.13a.58.58,0,0,1,.63-.56.59.59,0,0,1,.56.63L280,271.44a.6.6,0,0,1-.59.56" transform="translate(-51.93 -3.42)"/><path class="cls-41" d="M283.3,272h0a.6.6,0,0,1-.56-.63l1.63-29.13a.6.6,0,0,1,1.19.07l-1.63,29.13a.6.6,0,0,1-.59.56" transform="translate(-51.93 -3.42)"/><path class="cls-41" d="M287.19,272h0a.6.6,0,0,1-.56-.63l1.63-29.13a.6.6,0,1,1,1.19.07l-1.63,29.13a.6.6,0,0,1-.59.56" transform="translate(-51.93 -3.42)"/><path class="cls-25" d="M155.7,510.52H116.13a7.34,7.34,0,0,1-7.34-7.34V329.12H163V503.18a7.34,7.34,0,0,1-7.34,7.34" transform="translate(-51.93 -3.42)"/><path class="cls-42" d="M148,510.52H108.39a7.34,7.34,0,0,1-7.34-7.34V329.12H155.3V503.18a7.34,7.34,0,0,1-7.34,7.34" transform="translate(-51.93 -3.42)"/><g class="cls-43"><g class="cls-44"><rect class="cls-15" x="49.12" y="331.69" width="54.25" height="9.99"/></g></g><path class="cls-25" d="M365.83,510.52H326.27a7.34,7.34,0,0,1-7.34-7.34V329.12h54.24V503.18a7.34,7.34,0,0,1-7.34,7.34" transform="translate(-51.93 -3.42)"/><path class="cls-42" d="M358.09,510.52H318.53a7.34,7.34,0,0,1-7.34-7.34V329.12h54.25V503.18a7.34,7.34,0,0,1-7.34,7.34" transform="translate(-51.93 -3.42)"/><g class="cls-43"><g class="cls-45"><rect class="cls-15" x="259.26" y="331.69" width="54.25" height="9.99"/></g></g><path class="cls-42" d="M83.28,335.11h278.4a4.65,4.65,0,0,0,4.65-4.65v-7.78a4.65,4.65,0,0,0-4.65-4.65H83.28a4.65,4.65,0,0,0-4.65,4.65v7.78a4.65,4.65,0,0,0,4.65,4.65" transform="translate(-51.93 -3.42)"/><path class="cls-25" d="M207.93,335.11H403.17a4.65,4.65,0,0,0,4.65-4.65v-7.78a4.65,4.65,0,0,0-4.65-4.65H207.93a4.65,4.65,0,0,0-4.65,4.65v7.78a4.65,4.65,0,0,0,4.65,4.65" transform="translate(-51.93 -3.42)"/><path class="cls-15" d="M231.84,187.71c-4.79-10.78-16.43-15.52-21-15.52a17.17,17.17,0,0,0-9.76,3.57L214,216.44l20,6.22c4.1-11.77,3.06-20.83-.56-31,7.85,15.17,2.21,31.52,2.14,31.72l.68.24c.08-.22,6.77-19.6-4.36-36" transform="translate(-51.93 -3.42)"/><path class="cls-20" d="M210.65,250.87c-12.27,0-18.48-14.61-18.48-14.61L202,216.44h16.6Z" transform="translate(-51.93 -3.42)"/><polygon class="cls-18" points="162.6 230.58 153.56 219.31 166.64 213.02 162.6 230.58"/><path class="cls-20" d="M229.3,205.84c-.25,10.33-3.56,21.8-10.22,22.52-10.28,1.1-25.66-11.34-26.57-21.64s-1.8-27.41,12.16-28.65c20.29-1.79,25,13.87,24.64,27.77" transform="translate(-51.93 -3.42)"/><path class="cls-21" d="M227.13,190.82s2.3-12.93-12.89-14.92c-6.8-6-20.63-2.63-27.18,1.83a27.33,27.33,0,0,0-5.69,3.83C169.13,192.23,168,211.75,168,212l.72,0c0-.19,1.12-19.42,13.13-29.9a27.19,27.19,0,0,1,2.35-1.83c-7.92,8.46-14.12,20.84-13.81,33.61,13,14.54,32.67,12,32.67,12-4.3-8.58-3.47-17.48-2.65-21.83,8.77-2.14,14.85-5.83,18.09-11a15.83,15.83,0,0,0,2.48-9.29c.81.21,3.14,1.26,6.16,7.09m-9.27,1.83c-2.5,4-6.75,7-12.69,9.17,6-2.66,12.17-7.47,15-16.17a15.32,15.32,0,0,1-2.34,7" transform="translate(-51.93 -3.42)"/><rect class="cls-46" x="140.02" y="185" width="2.92" height="15.64"/><rect class="cls-47" x="138.07" y="185" width="2.92" height="15.64"/><path class="cls-46" d="M196.54,191.94v-7.57a9.81,9.81,0,0,1,4.68-8.13c1.45-.87,5.55-3.43,5.55-3.43s-7.12,0-10.28,1.22l-.83.32a8.65,8.65,0,0,0-5.55,8.07v9.51Z" transform="translate(-51.93 -3.42)"/><path class="cls-47" d="M194.59,191.94v-7.57a8.65,8.65,0,0,1,4.68-7.68l7.49-3.87-2.29-.19a22.45,22.45,0,0,0-9.93,1.41l-.83.32a8.65,8.65,0,0,0-5.55,8.07v9.51Z" transform="translate(-51.93 -3.42)"/><path class="cls-47" d="M201,207.66a8.27,8.27,0,1,1-8.27-8.27,8.27,8.27,0,0,1,8.27,8.27" transform="translate(-51.93 -3.42)"/><path class="cls-48" d="M199.41,207.66a8.27,8.27,0,1,1-8.27-8.27,8.27,8.27,0,0,1,8.27,8.27" transform="translate(-51.93 -3.42)"/><path class="cls-47" d="M196.32,207.66a5.19,5.19,0,1,1-5.19-5.19,5.19,5.19,0,0,1,5.19,5.19" transform="translate(-51.93 -3.42)"/><path class="cls-48" d="M193.49,207.66a2.36,2.36,0,1,1-2.36-2.36,2.36,2.36,0,0,1,2.36,2.36" transform="translate(-51.93 -3.42)"/><polygon class="cls-48" points="168.62 220.79 148.94 218.53 138.67 204.64 139.75 203.84 149.67 217.26 168.77 219.46 168.62 220.79"/><path class="cls-47" d="M221.2,224.9h-5.28a.64.64,0,0,1-.64-.64v-2.34a.64.64,0,0,1,.64-.64h5.28a.64.64,0,0,1,.64.64v2.34a.64.64,0,0,1-.64.64" transform="translate(-51.93 -3.42)"/></g><g class="cls-49"><rect class="cls-50" x="30.02" y="392.8" width="12.68" height="89.75"/></g><g class="cls-51"><rect class="cls-52" x="42.53" y="392.8" width="12.68" height="89.75"/></g><g class="cls-53"><rect class="cls-54" x="80.54" y="454.4" width="41.72" height="29.07" transform="translate(-429.25 433.72) rotate(-74)"/></g><g class="cls-55"><rect class="cls-56" x="88.56" y="456.2" width="40.67" height="25.41" transform="translate(-423.78 440.9) rotate(-74)"/></g><g class="cls-2"><path class="cls-57" d="M99.91,491.6c-2.95-4.42-21.63-7.9-21.63-7.9s6.16,6.6,6.16,11a19.62,19.62,0,0,1-1.06,5,10,10,0,0,0,9.53,13h.58c1.2-2.55,2.37-5.56,2.37-7.62,0-4.27,7-9.18,4.05-13.6" transform="translate(-51.93 -3.42)"/><path class="cls-58" d="M118.72,499.77a19.61,19.61,0,0,1-1.05-5c0-4.44,6.16-11,6.16-11H78.28s18.68,3.48,21.63,7.9-4,9.33-4,13.6c0,2.06-1.17,5.07-2.37,7.62h15.7a10,10,0,0,0,9.53-13" transform="translate(-51.93 -3.42)"/><path class="cls-59" d="M505.87,416.17c.73,4-2,15.14,0,18.64s5.76,11.18,2.48,18-7.34,25.64,15,26.21,18.53-24.29,16-29.14-5.87-9.49-7-19.54-2.15-13.56-14.46-22.82S503.83,396.4,501,399.9s3.39,8.13,4.86,16.27" transform="translate(-51.93 -3.42)"/><path class="cls-60" d="M514.34,419.78s18.14,38.41,6.47,82" transform="translate(-51.93 -3.42)"/><line class="cls-60" x1="469.68" y1="439.37" x2="459.47" y2="428.45"/><line class="cls-60" x1="471.77" y1="451.59" x2="478.11" y2="441.1"/><line class="cls-60" x1="472.8" y1="466.7" x2="459.93" y2="455.29"/><path class="cls-61" d="M409.49,473.84s10-3.5,11.18-11.08,3-18.67-1.85-17.7-14.58,12.74-9.33,28.78" transform="translate(-51.93 -3.42)"/><path class="cls-61" d="M400.25,483s3.31-10.5-2.33-14.88-24.31-2.82,2.33,14.88" transform="translate(-51.93 -3.42)"/><path class="cls-61" d="M406.47,491s20-1.65,22.65-10.6-18.47-1.46-22.65,10.6" transform="translate(-51.93 -3.42)"/><path class="cls-60" d="M417,453.42a154.38,154.38,0,0,1-7.49,20.42c-4.38,9.33-8.27,26.74-8.27,26.74s-1.45-10.4,22-19.35" transform="translate(-51.93 -3.42)"/><path class="cls-60" d="M394.71,473.06a40.83,40.83,0,0,1,8,21.22" transform="translate(-51.93 -3.42)"/></g></g></svg>
