<svg xmlns="http://www.w3.org/2000/svg" viewBox="0 0 1183 660.24"><defs><style>.cls-1{fill:#ffc763;}.cls-2{fill:#cee0f2;}.cls-3{fill:#563112;opacity:0.2;}.cls-14,.cls-4{fill:#0401aa;}.cls-14,.cls-5,.cls-7{opacity:0.4;}.cls-6{fill:#eb5a62;}.cls-7{fill:#662131;}.cls-8{fill:#ebf2fa;}.cls-9{fill:#f69d80;}.cls-10{opacity:0.3;}.cls-11{fill:#20437f;}.cls-12{opacity:0.1;}.cls-13{fill:#fff;}.cls-15{fill:#ce7962;}</style></defs><title>home</title><g id="Layer_Trees_2" data-name="Layer_Trees 2"><path class="cls-1" d="M588.52,508.88c-6.89,5.83-16.58,12.14-26.65,18.09-22.29,13.13-46.48,24.42-46.48,24.42s-91.83-52.72-79.93-90.13,30.61-44.21,18.71-73.12-8.5-42.51,11.9-62.92,22.11-37.41,22.11-59.52c0-11.63,8-23.72,18.06-28.86,9.06-4.64,19.79-3.64,27.86,8.45,17,25.51,5.1,62.92,30.61,79.93s35.71,27.21,28.91,52.72-15.31,40.81,1.7,57.82S610.63,490.18,588.52,508.88Z" transform="translate(-8 -234.28)"/><polygon class="cls-2" points="530.55 248.56 510.36 272.87 511.39 209.63 531.83 186.74 530.58 185.62 511.44 207.06 512.43 146.09 513.17 146.65 531.87 122.06 530.53 121.05 512.46 144.8 513.34 90.96 511.65 90.93 510.18 180.8 485.86 158.35 484.72 159.59 510.15 183.06 509.27 236.28 484.14 214.45 483.04 215.72 509.24 238.48 503.15 610.33 504.83 610.36 510.31 275.55 531.85 249.64 530.55 248.56"/><path class="cls-3" d="M561.87,527c-22.29,13.13-46.48,24.42-46.48,24.42s-91.83-52.72-79.93-90.13,30.61-44.21,18.71-73.12-8.5-42.51,11.9-62.92,22.11-37.41,22.11-59.52c0-11.63,8-23.72,18.06-28.86A36.2,36.2,0,0,0,498.39,264c3.4,28.91-8.5,56.12-20.41,66.32s-11.9,32.31,0,54.42-5.1,49.32-8.5,71.42C466.59,475,504.37,528.34,561.87,527Z" transform="translate(-8 -234.28)"/></g><g id="Layer_Trees_1" data-name="Layer_Trees 1"><path class="cls-4" d="M198.91,602.25c-5.1,4.66-12.28,9.69-19.74,14.45-16.51,10.48-34.43,19.5-34.43,19.5s-68-42.09-59.21-72,22.67-35.3,13.86-58.39-6.3-33.95,8.82-50.24,16.38-29.87,16.38-47.52c0-9.29,5.92-18.94,13.38-23,6.71-3.71,14.66-2.91,20.63,6.75,12.6,20.37,3.78,50.24,22.67,63.82s26.45,21.73,21.41,42.09-11.34,32.59,1.26,46.17S215.29,587.31,198.91,602.25Z" transform="translate(-8 -234.28)"/><polygon class="cls-2" points="153.9 347.17 138.94 366.58 139.71 316.09 154.85 297.81 153.92 296.92 139.74 314.04 140.48 265.36 141.02 265.8 154.88 246.17 153.89 245.36 140.5 264.33 141.15 221.34 139.9 221.31 138.81 293.07 120.79 275.14 119.95 276.13 138.79 294.87 138.14 337.37 119.52 319.94 118.7 320.95 138.11 339.13 133.6 636.03 134.85 636.05 138.91 368.73 154.86 348.03 153.9 347.17"/><path class="cls-5" d="M179.18,616.69c-16.51,10.48-34.43,19.5-34.43,19.5s-68-42.09-59.21-72,22.67-35.3,13.86-58.39-6.3-33.95,8.82-50.24,16.38-29.87,16.38-47.52c0-9.29,5.92-18.94,13.38-23a30.48,30.48,0,0,0-5.82,21.68c2.52,23.08-6.3,44.81-15.12,53s-8.82,25.8,0,43.45-3.78,39.38-6.3,57C108.59,575.18,136.58,617.78,179.18,616.69Z" transform="translate(-8 -234.28)"/><path class="cls-4" d="M1134.46,613.86c-5.32,4.5-12.8,9.38-20.58,14C1096.67,638,1078,646.69,1078,646.69s-70.91-40.71-61.72-69.6,23.64-34.14,14.44-56.47-6.57-32.83,9.19-48.59,17.07-28.89,17.07-46c0-9,6.17-18.32,13.95-22.28,7-3.58,15.29-2.81,21.51,6.53,13.13,19.7,3.94,48.59,23.64,61.72s27.58,21,22.32,40.71-11.82,31.52,1.31,44.65S1151.54,599.41,1134.46,613.86Z" transform="translate(-8 -234.28)"/><polygon class="cls-2" points="1087.88 359.47 1072.29 378.24 1073.09 329.41 1088.87 311.73 1087.9 310.87 1073.12 327.42 1073.89 280.34 1074.45 280.77 1088.9 261.79 1087.87 261 1073.91 279.35 1074.59 237.77 1073.29 237.75 1072.15 307.15 1053.37 289.81 1052.49 290.77 1072.12 308.89 1071.45 349.99 1052.04 333.13 1051.19 334.11 1071.42 351.69 1066.72 638.83 1068.02 638.85 1072.25 380.31 1088.88 360.3 1087.88 359.47"/><path class="cls-5" d="M1113.89,627.83C1096.67,638,1078,646.69,1078,646.69s-70.91-40.71-61.72-69.6,23.64-34.14,14.44-56.47-6.57-32.83,9.19-48.59,17.07-28.89,17.07-46c0-9,6.17-18.32,13.95-22.28a28,28,0,0,0-6.07,21c2.63,22.32-6.57,43.33-15.76,51.21s-9.19,25,0,42-3.94,38.08-6.57,55.15C1040.31,587.69,1069.49,628.88,1113.89,627.83Z" transform="translate(-8 -234.28)"/></g><g id="Layer_Block_3" data-name="Layer_Block 3"><rect class="cls-6" x="900.23" y="591.59" width="262.66" height="63.05"/><polyline class="cls-7" points="900.36 624.38 1125.82 624.38 1162.89 654.44 900.36 654.44 900.36 624.38"/></g><g id="Layer_Character_3" data-name="Layer_Character 3"><g id="Left_hand" data-name="Left hand"><path d="M989,617.3c-3.39,12-6,21.75-15.06,20.31a10.72,10.72,0,0,1-3.57-1.23c-6-3.34-7.29-11.64-7.29-11.64l3-12.25,10.53-43.66c2.6-10.53,16.67-4.86,18.24,2.16S992.41,605.34,989,617.3Z" transform="translate(-8 -234.28)"/><path d="M962,623.73,916.27,639.1v15.74s24.89-3.66,34.41-4.39,26.64-9,30.53-17.29S971.91,617.14,962,623.73Z" transform="translate(-8 -234.28)"/><path d="M899.34,646.25c1.46.37,6.27,4.58,7.73,5s22.12-.24,22.12-.24.06-8.68-1.55-9.54a15.11,15.11,0,0,0-3.08-1.23,86.68,86.68,0,0,1-9.92,0,4.82,4.82,0,0,1-1.54-.33c-1.27-.68-4.17-4.53-6.06-6.72a12.23,12.23,0,0,0-1.27-1.33,34.81,34.81,0,0,0-4.35-2.73s-1.31.13-.37,1.46,1.59,1.68,2.07,2.35a4.53,4.53,0,0,1,.62,1.16s-10-4.52-11.85-4.24,0,1.64,1.42,2,7.6,3.64,7.6,3.64-11.85-4.24-12.66-4.26-1.83,1.1.43,2.3,8.75,3.83,9.54,4.67.62,1.16.13,1.31-8.79-2.19-9.93-2.39-2,.6.28,1.81,9.26,2.86,9.41,3.36-.19,1.14-2.65,1.08-4.89-.95-5.56-.47.62,1.16,2.41,1.7S897.87,645.89,899.34,646.25Z" transform="translate(-8 -234.28)"/><polygon class="cls-8" points="790.19 224.51 781.35 224.51 673.72 224.51 673.72 310.05 781.35 310.05 781.35 654.64 900.23 654.64 900.23 224.51 790.19 224.51"/><polygon class="cls-2" points="900.36 224.56 840.23 270.66 840.23 654.64 900.36 654.64 900.36 224.56"/><polygon class="cls-2" points="673.72 269.5 813.18 269.5 781.11 309.74 673.72 309.74 673.72 269.5"/></g><g id="Head"><path class="cls-9" d="M987,559.19a16.9,16.9,0,0,1-2,6.83c-2,4-9.24,6.83-9.24,6.83l-2.61-2.94-3.82-4.29-4.82,4a42.62,42.62,0,0,1-13.66-10.44c-5.62-6.83-10-21.69-10-21.69l14.06-9.64s14.06-2.41,21.69.4S979.72,550,979.72,550Z" transform="translate(-8 -234.28)"/><path d="M942.06,542.29s.67-3.94,4-3.1,14.1,8,22,3.79,4.15,14.73,14.51,7.57,12-13.46,9.12-20.62-7-8.84-8.71-12.2-.41-12.62-15.34-15.15-25.71,2.95-29.44,13.46-7.46,2.52-6.63,10.94S938.48,542.45,942.06,542.29Z" transform="translate(-8 -234.28)"/><path class="cls-10" d="M974.5,558a101.74,101.74,0,0,1-1.41,11.92l-3.82-4.29Z" transform="translate(-8 -234.28)"/></g><g id="Left_leg" data-name="Left leg"><path class="cls-11" d="M1011.75,673.8s13.43,68.2,23.92,91.59c0,0,7.72,8.5,17.33,3.46s2.75-11.74,1.87-40.17-1.14-68.21-4.06-72.07S1012.21,653,1011.75,673.8Z" transform="translate(-8 -234.28)"/><path class="cls-5" d="M1011.75,673.8s13.43,68.2,23.92,91.59c0,0,7.72,8.5,17.33,3.46s2.75-11.74,1.87-40.17-1.14-68.21-4.06-72.07S1012.21,653,1011.75,673.8Z" transform="translate(-8 -234.28)"/><path class="cls-9" d="M1112.89,824.87l10.47,8.75s2.07,3.47-1.81,6.33a17.27,17.27,0,0,1-8.78,3l-10.07-7.54Z" transform="translate(-8 -234.28)"/><path class="cls-11" d="M1038.57,772.06s21,24,33.71,37.25S1103.11,838,1103.11,838a15.36,15.36,0,0,0,8.75-5.17c3.95-4.55,4.06-7.86,4.06-7.86s-23.83-34.31-33.6-45.35-26-25.39-26.63-26.4-8.11-5.15-13.27-2.39S1030.56,762.54,1038.57,772.06Z" transform="translate(-8 -234.28)"/><path class="cls-5" d="M1038.57,772.06s21,24,33.71,37.25S1103.11,838,1103.11,838a15.36,15.36,0,0,0,8.75-5.17c3.95-4.55,4.06-7.86,4.06-7.86s-23.83-34.31-33.6-45.35-26-25.39-26.63-26.4-8.11-5.15-13.27-2.39S1030.56,762.54,1038.57,772.06Z" transform="translate(-8 -234.28)"/><path class="cls-11" d="M1133.71,839.18s.57,7.65-11.12,22-14.21,18.48-18,17.94-3.37-9.59-2-15.56c.09-.38.18-.8.28-1.23h0c1.43-6.29,3.8-17.24,4.45-20,0,0,1.48-3.12,8.3-1.5,0,0,5.29-4.63,5.25-7.07s-.13-3.62-.13-3.62,1.25-1.48,2.79.29,4.16,5,6.42,6.19a20.6,20.6,0,0,1,2.44,1.55A15.73,15.73,0,0,1,1133.71,839.18Z" transform="translate(-8 -234.28)"/><path class="cls-2" d="M1133.71,839.18s.57,7.65-11.12,22-14.21,18.48-18,17.94-3.37-9.59-2-15.56c.09-.38.18-.8.28-1.23h0s2.35-4.55,12,3.91a83.73,83.73,0,0,0,17.49-28.1A15.73,15.73,0,0,1,1133.71,839.18Z" transform="translate(-8 -234.28)"/></g><g id="Right_leg" data-name="Right leg"><path class="cls-9" d="M1026,858.65l3.21,13.25s-.4,4-5.22,4a17.26,17.26,0,0,1-8.84-2.81l-3.61-12Z" transform="translate(-8 -234.28)"/><path class="cls-11" d="M988.27,889.58s.8,2.81,10,4.42,19.68-1.61,24.5-2.41,9.64-4.82,9.64-4.82l-.33-3.18c-.47-4.62-1.28-12.71-1.28-13.28,0-.8-2.32-1.34-2.32-1.34s-6.11,4.15-8.12,3.35-6.47-3.35-6.47-3.35a61,61,0,0,1-12.7,9.19q-1,.54-2.12,1C991.48,882.35,989.07,883.55,988.27,889.58Z" transform="translate(-8 -234.28)"/><path class="cls-2" d="M988.27,889.58s.8,2.81,10,4.42,19.68-1.61,24.5-2.41,9.64-4.82,9.64-4.82l-.33-3.18c-2.35,2.38-8,6.13-20.56,7.2,0,0-2.47-9.65-10.33-12.63q-1,.54-2.12,1C991.48,882.35,989.07,883.55,988.27,889.58Z" transform="translate(-8 -234.28)"/><path class="cls-11" d="M995.38,682.08s-16.06,87.15-12.45,105.22,23.29,12.85,30.12-11.25,24.5-82.73,26.91-91.57,0-21.69,0-21.69S1002.21,659.19,995.38,682.08Z" transform="translate(-8 -234.28)"/><path class="cls-11" d="M982.4,782.69s.13,12.25,12.18,39.15S1010.24,864,1010.24,864a13.34,13.34,0,0,0,8.84,1.61c5.22-.8,8.84-5.22,8.84-5.22s-6.43-52.21-8.84-63.46-7.22-17.15-6.22-20.22-2.62-13.51-15.47-9.9S982.4,782.69,982.4,782.69Z" transform="translate(-8 -234.28)"/></g><g id="Body"><path class="cls-1" d="M1054.22,662.6s-11.65,15.26-28.11,20.48S989,684.89,989,684.89s-.61-2.63-1.6-6.82c-2.86-12.09-8.88-37.18-12.46-49.41a86.13,86.13,0,0,1-2.54-12.55c-2-14.81-1.33-31,.53-34.44,2.41-4.42,0-10,0-10l12.59-14.33s1.07-.93,2.27.67,2.41,2.41,3.21,2.41,10.84.8,21.69,22.49,28.11,56.63,32.13,61S1054.22,662.6,1054.22,662.6Z" transform="translate(-8 -234.28)"/><path class="cls-3" d="M987.36,678.08c-2.86-12.09-8.88-37.18-12.46-49.41a86.13,86.13,0,0,1-2.54-12.55c3.21-7.74,7.19-17.93,9-24.8,3.21-12.45,20.48-18.07,25.3-1.61C1011.28,605.59,1005.1,658.81,987.36,678.08Z" transform="translate(-8 -234.28)"/></g><g id="Right_hand" data-name="Right hand"><path class="cls-1" d="M999.8,631.48c-3.21,13.25-5.62,24.1-15.66,22.89a11.76,11.76,0,0,1-4-1.2c-6.73-3.41-8.48-12.46-8.48-12.46l2.73-13.55,9.72-48.3c2.41-11.65,18.07-6,20.08,1.61S1003,618.23,999.8,631.48Z" transform="translate(-8 -234.28)"/><path class="cls-3" d="M980.17,653.17c-6.73-3.41-8.48-12.46-8.48-12.46l2.73-13.55A48.13,48.13,0,0,1,980.17,653.17Z" transform="translate(-8 -234.28)"/><path class="cls-9" d="M896.68,665.08c1.58.5,6.54,5.46,8.12,6S929,672.31,929,672.31s.67-9.5-1-10.55a16.57,16.57,0,0,0-3.29-1.56,95.09,95.09,0,0,1-10.86-.65,5.29,5.29,0,0,1-1.66-.47c-1.34-.83-4.25-5.25-6.16-7.78a13.42,13.42,0,0,0-1.29-1.54,38.18,38.18,0,0,0-4.57-3.3s-1.45.05-.5,1.58,1.63,1.95,2.1,2.71a5,5,0,0,1,.6,1.32s-10.67-5.65-12.67-5.47-.16,1.79,1.42,2.29,8.07,4.51,8.07,4.51-12.67-5.47-13.57-5.55-2.08,1.08.31,2.55,9.31,4.8,10.12,5.78.6,1.32.05,1.45-9.47-3-10.7-3.31-2.21.52.18,2,9.94,3.78,10.07,4.33-.29,1.24-3,1-5.29-1.38-6.05-.9.6,1.32,2.52,2S895.1,664.57,896.68,665.08Z" transform="translate(-8 -234.28)"/><path class="cls-12" d="M908.68,664a22,22,0,0,1,5.17-4.44,5.29,5.29,0,0,1-1.66-.47c-1.34-.83-4.25-5.25-6.16-7.78-2.53,3.73-7.72,6-7,10C899.84,666.08,905.25,668,908.68,664Z" transform="translate(-8 -234.28)"/><path class="cls-1" d="M971.69,640.72l-50.2,16.87v17.27s27.31-4,37.75-4.82,29.23-9.82,33.49-19S982.53,633.49,971.69,640.72Z" transform="translate(-8 -234.28)"/></g></g><g id="Layer_Conversation"><path class="cls-6" d="M930.49,552.76l-12-13.9a.93.93,0,0,1,.71-1.55h0a.93.93,0,0,0,.93-.93V470a.93.93,0,0,0-.93-.93H800a.93.93,0,0,0-.93.93v66.41a.93.93,0,0,0,.93.93H900.32l29,16.86A.93.93,0,0,0,930.49,552.76Z" transform="translate(-8 -234.28)"/><circle class="cls-13" cx="809.63" cy="267.7" r="2.81"/><circle class="cls-13" cx="829.71" cy="267.7" r="2.81"/><circle class="cls-13" cx="849.79" cy="267.7" r="2.81"/><circle class="cls-13" cx="869.87" cy="267.7" r="2.81"/><circle class="cls-13" cx="889.95" cy="267.7" r="2.81"/></g><g id="Layer_Block_2" data-name="Layer_Block 2"><rect class="cls-1" x="530.34" y="310.05" width="251.01" height="210.45"/><polygon class="cls-3" points="530.34 520.5 781.11 309.74 781.11 520.17 530.34 520.5"/></g><g id="Layer_Block_1" data-name="Layer_Block 1"><rect class="cls-4" x="301.82" y="521.3" width="479.53" height="133.34"/><polygon class="cls-5" points="302.13 521.17 368.26 589.31 707.96 589.31 781.11 520.17 302.13 521.17"/></g><g id="Layer_Icon_3" data-name="Layer_Icon 3"><rect class="cls-4" x="614.28" y="196.39" width="138.16" height="45.38" rx="20.16" ry="20.16"/><rect class="cls-4" x="508.25" y="267.88" width="245.79" height="119.28" rx="25.37" ry="25.37"/><rect class="cls-13" x="529.45" y="286.69" width="117.03" height="9.14"/><rect class="cls-13" x="529.45" y="304.97" width="81.92" height="9.14"/><rect class="cls-13" x="678.96" y="364.67" width="55.22" height="6.16"/></g><g id="Layer_Character_2" data-name="Layer_Character 2"><g id="Left_leg-2" data-name="Left leg"><path class="cls-4" d="M147.17,670.84S161.22,772,161.22,779.27s-14.46,18.47-22.09,7.23-23.7-96-23.7-96Z" transform="translate(-8 -234.28)"/><path class="cls-4" d="M132.08,857.63l-.49,13.63s1.2,3.85,5.92,2.89a17.27,17.27,0,0,0,8.09-4.52l1.13-12.53Z" transform="translate(-8 -234.28)"/><path class="cls-14" d="M147.17,670.84S161.22,772,161.22,779.27s-14.46,18.47-22.09,7.23-23.7-96-23.7-96Z" transform="translate(-8 -234.28)"/><path class="cls-4" d="M161.07,777s2.16,1.1-5.47,41.26S148,860.4,148,860.4s-6.43,2.81-11.25,2-6.83-3.21-6.83-3.21,1.61-43,4.82-54.62,1.38-24.94,1.38-24.94S141.65,756.2,161.07,777Z" transform="translate(-8 -234.28)"/><path class="cls-4" d="M172.51,888.54s-.8,2.81-10,4.42-19.68-1.61-24.5-2.41-9.64-4.82-9.64-4.82l.33-3.18c.47-4.62,1.28-12.71,1.28-13.28,0-.8,2.32-1.34,2.32-1.34s6.11,4.15,8.12,3.35,6.47-3.35,6.47-3.35a61,61,0,0,0,12.7,9.19q1,.54,2.12,1C169.3,881.31,171.71,882.52,172.51,888.54Z" transform="translate(-8 -234.28)"/><path class="cls-4" d="M172.51,888.54s-.8,2.81-10,4.42-19.68-1.61-24.5-2.41-9.64-4.82-9.64-4.82l.33-3.18c2.35,2.38,8,6.13,20.56,7.2,0,0,2.47-9.65,10.33-12.63q1,.54,2.12,1C169.3,881.31,171.71,882.52,172.51,888.54Z" transform="translate(-8 -234.28)"/><path class="cls-14" d="M161.07,777s2.16,1.1-5.47,41.26S148,860.4,148,860.4s-6.43,2.81-11.25,2-6.83-3.21-6.83-3.21,1.61-43,4.82-54.62,1.38-24.94,1.38-24.94S141.65,756.2,161.07,777Z" transform="translate(-8 -234.28)"/></g><g id="Right_leg-2" data-name="Right leg"><path class="cls-4" d="M131.9,682.89s-21.69,108.84-23.29,114.06-22.09,11.25-24.5-2.41,1.61-45.78,0-62.65-2.41-35.74,1.61-43.37S131.9,682.89,131.9,682.89Z" transform="translate(-8 -234.28)"/><path class="cls-9" d="M68,857.59l-3.21,13.25s.4,4,5.22,4A17.26,17.26,0,0,0,78.89,872l3.61-12Z" transform="translate(-8 -234.28)"/><path class="cls-4" d="M108.81,796.2l-25.9,67s-13.25,2.81-16.47-6c0,0,4.42-31.73,6-39.36s10.79-22.16,11.22-26.54,3.64-9.6,12.88-8S108.6,787.82,108.81,796.2Z" transform="translate(-8 -234.28)"/><path class="cls-4" d="M105.8,888.52s-.8,2.81-10,4.42-19.68-1.61-24.5-2.41-9.64-4.82-9.64-4.82l.33-3.18c.47-4.62,1.28-12.71,1.28-13.28,0-.8,2.32-1.34,2.32-1.34s6.11,4.15,8.12,3.35,6.47-3.35,6.47-3.35a61,61,0,0,0,12.7,9.19q1,.54,2.12,1C102.59,881.29,105,882.49,105.8,888.52Z" transform="translate(-8 -234.28)"/><path class="cls-2" d="M105.8,888.52s-.8,2.81-10,4.42-19.68-1.61-24.5-2.41-9.64-4.82-9.64-4.82l.33-3.18c2.35,2.38,8,6.13,20.56,7.2,0,0,2.47-9.65,10.33-12.63q1,.54,2.12,1C102.59,881.29,105,882.49,105.8,888.52Z" transform="translate(-8 -234.28)"/></g><g id="Left_hand-2" data-name="Left hand"><path class="cls-15" d="M192,561a8,8,0,0,1-4.92-9.81,39.41,39.41,0,0,0,1.5-6.54c.17-3-1.16-9.5-1.93-11.76s1.16-3,2.27-.78,1.55,4.53,1.92,5.17.69.62.69.62,5.87-13.82,7.82-14.25,1.07,1.59.21,3.94-2.61,6.73-2.61,6.73,7.11-8.94,8.43-9,1.37.92.79,2.59-5.85,7.88-5.85,7.88,6.23-6.92,7.58-6.33.74,1.61.14,2.63-4.95,6.19-4.95,6.19,6.33-4.94,7-4.65.71,1-.85,2.68-5,5.86-5.24,6.86-2.25,7.37-4.14,9.11a36.29,36.29,0,0,0-5.81,8.54C193.78,561.38,193,561.34,192,561Z" transform="translate(-8 -234.28)"/><path class="cls-1" d="M186,550.8l-32.33,47.61s-3.91,7.3.44,14.3,13.7,1.74,17.95-4S196.71,560,196.71,560,192.7,549.9,186,550.8Z" transform="translate(-8 -234.28)"/><path class="cls-3" d="M186,550.8l-32.33,47.61s-3.91,7.3.44,14.3,13.7,1.74,17.95-4S196.71,560,196.71,560,192.7,549.9,186,550.8Z" transform="translate(-8 -234.28)"/><rect class="cls-6" x="168.08" y="164.26" width="143.77" height="331.74"/><path class="cls-1" d="M168.8,602.18S142.86,563.26,137.16,559s-21.33-.23-12.91,17.95,25.08,34.33,32,38.19S172.07,612.26,168.8,602.18Z" transform="translate(-8 -234.28)"/><path class="cls-3" d="M168.8,602.18S142.86,563.26,137.16,559s-21.33-.23-12.91,17.95,25.08,34.33,32,38.19S172.07,612.26,168.8,602.18Z" transform="translate(-8 -234.28)"/><polygon class="cls-7" points="311.86 164.26 311.86 495.45 168.09 164.97 167.85 164.44 168.09 164.33 168.22 164.26 311.86 164.26"/></g><g id="Head-2" data-name="Head"><path d="M121.86,520.63s4.82-9.64,3.61-24.1S107.4,483.28,103,484.08s-14.46,5.22-14.46,5.22l5.22,1.61S79.69,499.35,75.68,511s-2.81,16.06-2.81,16.06l4.82-2s1.61,13.66,4.82,19.28l.4-2.41s8.84,9.24,11.25,10.44,8.43,0,8.43,0,2.81-20.88,8.84-25.7S121.86,520.63,121.86,520.63Z" transform="translate(-8 -234.28)"/><path class="cls-9" d="M124.67,533.48c-.8,10.44-2.41,14.06-2.41,14.06l-4.42.8V561.2s-2,4.82-11.65,3.61-5.62-4.42-5.62-4.42l-.8-12s-6-2.41-6.83-8.84,4-3.61,5.22-2.81a4.81,4.81,0,0,1,1.61,1.61l-.4-10.84,5.22-8,.8,4S115,515.81,119.86,505C119.86,505,125.48,523,124.67,533.48Z" transform="translate(-8 -234.28)"/><path class="cls-10" d="M117.85,548.34v4.92l-7.23-4.52A56.49,56.49,0,0,0,117.85,548.34Z" transform="translate(-8 -234.28)"/><path class="cls-10" d="M100.18,541.92s-2.81-4-4.42-4.42-.8,2.81-.8,2.81S96.16,538.3,100.18,541.92Z" transform="translate(-8 -234.28)"/></g><g id="Body-2" data-name="Body"><path class="cls-1" d="M153.59,674.05s-11.25,13.25-34.14,20.48a118.41,118.41,0,0,1-13.48,3.4c-16.12,3.08-27.48,1.82-27.48,1.82s2.81-39,1.2-57.83c-.58-6.77-1.15-15.5-1.56-24.27-.73-15.68-.93-31.48.36-36.37,2-7.63,22.09-20.88,22.09-20.88a21.31,21.31,0,0,0,11.25,2.81c.23,0,.45,0,.66-.07a5.69,5.69,0,0,0,5.36-5.43s1.35-.2,3.59-.33a69.68,69.68,0,0,1,10.87.2c8,.8,14.06,8.43,14.86,22.09.07,1.24.12,2.72.15,4.39.31,16.76-1.25,52.89-.15,59.47C148.37,650.76,153.59,674.05,153.59,674.05Z" transform="translate(-8 -234.28)"/><path class="cls-3" d="M106,697.93c-16.12,3.08-27.48,1.82-27.48,1.82s2.81-39,1.2-57.83c-.58-6.77-1.15-15.5-1.56-24.27A66.26,66.26,0,0,0,91.74,637.5C102.55,648,105.28,680.81,106,697.93Z" transform="translate(-8 -234.28)"/><path class="cls-3" d="M147.32,584.06c-8.56,7.85-43,24.79-57.58,22.92-15.66-2-6.31-25,22.75-43.84a5.76,5.76,0,0,0,4.72-3l4.23-2.71a69.68,69.68,0,0,1,10.87.2c8,.8,14.06,8.43,14.86,22.09C147.24,580.91,147.29,582.39,147.32,584.06Z" transform="translate(-8 -234.28)"/></g><g id="Right_hand-2" data-name="Right hand"><path class="cls-1" d="M78.72,580.57s-5.45,14-4.65,22.79,14.86,10,36.55-2.81,40.16-26.91,40.16-34.14-10.44-14.86-22.89-6.83-36.15,22.09-40.56,23.7S82.16,578.66,78.72,580.57Z" transform="translate(-8 -234.28)"/><path class="cls-1" d="M171.66,512.2l-41,45.84s-5.18,7.17-1.56,15.21,14.26,3.78,19.58-1.72,33-48.08,33-48.08S178.89,512.2,171.66,512.2Z" transform="translate(-8 -234.28)"/><path class="cls-9" d="M191.34,492.12c-.4,1.61,1.2,8.43.8,10s-11.65,21.29-11.65,21.29-8.43-4.42-8.43-6.43a16.57,16.57,0,0,1,.4-3.61,95.07,95.07,0,0,0,5.15-9.58,5.29,5.29,0,0,0,.47-1.66c0-1.58-2.23-6.37-3.38-9.33a13.42,13.42,0,0,1-.63-1.91,38.18,38.18,0,0,1-.4-5.62s.8-1.2,1.61.4.8,2.41,1.2,3.21a5,5,0,0,0,.8,1.2s.8-12,2-13.66,1.61.8,1.2,2.41-.4,9.24-.4,9.24,2-13.66,2.41-14.46,2-1.2,2,1.61-.8,10.44-.4,11.65.8,1.2,1.2.8,2.41-9.64,2.81-10.84,1.61-1.61,1.61,1.2-2,10.44-1.61,10.84,1.2.4,2.41-2,1.61-5.22,2.41-5.62.8,1.2.4,3.21S191.74,490.51,191.34,492.12Z" transform="translate(-8 -234.28)"/><path class="cls-12" d="M184.11,501.76a22,22,0,0,0-6.49,2.06,5.29,5.29,0,0,0,.47-1.66c0-1.58-2.23-6.37-3.38-9.33,4.51-.19,9.2-3.39,12.22-.71C190.54,495.33,189.34,501,184.11,501.76Z" transform="translate(-8 -234.28)"/></g></g><g id="Layer_Character_1" data-name="Layer_Character 1"><g id="Left_hand-3" data-name="Left hand"><path class="cls-6" d="M397,424.09s-16.45,43.93-19.66,59.2,8.84,17.67,18.07,8.43S415,437.1,415.45,427.46s-11.68-9.55-18.49-3.37" transform="translate(-8 -234.28)"/><path class="cls-7" d="M397,424.09s-16.45,43.93-19.66,59.2,8.84,17.67,18.07,8.43S415,437.1,415.45,427.46s-11.68-9.55-18.49-3.37" transform="translate(-8 -234.28)"/><path class="cls-6" d="M378.12,479.81s4.39-3.36,12.43-3.76,10.26,5.44,6.53,13.56-17.46,15.24-26.26,17.51-27.27,3.07-25.66-5-1.2-9.24,10-13.66S376.54,481.16,378.12,479.81Z" transform="translate(-8 -234.28)"/><path class="cls-7" d="M378.12,479.81s4.39-3.36,12.43-3.76,10.26,5.44,6.53,13.56-17.46,15.24-26.26,17.51-27.27,3.07-25.66-5-1.2-9.24,10-13.66S376.54,481.16,378.12,479.81Z" transform="translate(-8 -234.28)"/><polygon class="cls-1" points="404.04 306.9 292.8 352.15 247.61 241.1 247.54 240.92 358.77 195.66 403.43 305.39 403.43 305.41 404.04 306.9"/><path class="cls-3" d="M411.43,539.66v0L256,475.87c-.14-.17-.28-.33-.41-.5l-.07-.18,111.24-45.26Z" transform="translate(-8 -234.28)"/></g><g id="Left_leg-3" data-name="Left leg"><path class="cls-11" d="M392.55,534.29s-2,3.61,2,54.62,7.63,68.68,12.85,73.09,16.47,8,20.48-21.69,4.42-101.61,4.42-101.61Z" transform="translate(-8 -234.28)"/><path class="cls-14" d="M392.55,534.29s-2,3.61,2,54.62,7.63,68.68,12.85,73.09,16.47,8,20.48-21.69,4.42-101.61,4.42-101.61Z" transform="translate(-8 -234.28)"/><path class="cls-9" d="M407,722.65V735.9s1.2,3.61,4.82,4,9.24-2,9.24-2V720.64Z" transform="translate(-8 -234.28)"/><path class="cls-11" d="M404.6,723.85s7.63,3.61,19.28,0c0,0,5.22-47,4.42-64.26s-.09-21.76-.09-21.76-3.53-11.58-14.37-11.18-14.28,3.32-14.17,11.1S404.6,712.61,404.6,723.85Z" transform="translate(-8 -234.28)"/><path class="cls-4" d="M424.23,749.59s-5.5,5.35-24,5.61-23.29,1-25.3-2.26,5.19-8.74,10.64-11.52l1.12-.58h0c5.73-2.94,15.65-8.15,18.21-9.45,0,0,3.34-.87,6.48,5.4,0,0,6.94,1.08,8.79-.52s2.69-2.43,2.69-2.43,1.93,0,1.57,2.33-1.13,6.38-.62,8.9a20.6,20.6,0,0,1,.38,2.87A15.73,15.73,0,0,1,424.23,749.59Z" transform="translate(-8 -234.28)"/><path class="cls-2" d="M424.23,749.59s-5.5,5.35-24,5.61-23.29,1-25.3-2.26,5.19-8.74,10.64-11.52l1.12-.58h0s5-1.12,4.74,11.73a83.73,83.73,0,0,0,32.77-4.65A15.73,15.73,0,0,1,424.23,749.59Z" transform="translate(-8 -234.28)"/><path class="cls-14" d="M404.6,723.85s7.63,3.61,19.28,0c0,0,5.22-47,4.42-64.26s-.09-21.76-.09-21.76-3.53-11.58-14.37-11.18-14.28,3.32-14.17,11.1S404.6,712.61,404.6,723.85Z" transform="translate(-8 -234.28)"/></g><g id="Right_leg-3" data-name="Right leg"><path class="cls-4" d="M415,555.17S450,640.31,452.8,643.93s26.11,9.24,26.11-18.47-11.25-46.19-11.25-68.28,2.41-26.91-2.81-33.74S404.6,524.65,415,555.17Z" transform="translate(-8 -234.28)"/><path class="cls-9" d="M495.37,701.76l8,13.66s3.21,2.81,7.63-1.61,5.22-8.43,5.22-8.43l-7.63-13.25Z" transform="translate(-8 -234.28)"/><path class="cls-11" d="M525.09,712.61s-.8,7.63-14.86,19.68S493,747.95,489.34,746.74s-1.61-10,.8-15.66l.49-1.16h0c2.52-5.93,6.81-16.29,7.94-18.92,0,0,2-2.81,8.43,0,0,0,6-3.61,6.43-6s.51-3.59.51-3.59,1.49-1.23,2.7.78,3.21,5.62,5.22,7.23a20.6,20.6,0,0,1,2.12,2A15.73,15.73,0,0,1,525.09,712.61Z" transform="translate(-8 -234.28)"/><path class="cls-2" d="M525.09,712.61s-.8,7.63-14.86,19.68S493,747.95,489.34,746.74s-1.61-10,.8-15.66l.49-1.16h0s3.12-4.06,11.15,6A83.73,83.73,0,0,0,524,711.35,15.73,15.73,0,0,1,525.09,712.61Z" transform="translate(-8 -234.28)"/><path class="cls-4" d="M451.84,642.19l42.73,61.17a17.16,17.16,0,0,0,12.85-5.62c5.22-6,4-7.63,4-7.63S495.77,650,491.75,642.32,480.9,630,478.9,624.7s-2.81-14.1-12.45-13.7S442.85,618.77,451.84,642.19Z" transform="translate(-8 -234.28)"/></g><path id="Hair" d="M387.74,378.46s-16.87-2.81-17.67-12.45,3.61-13.66,3.61-13.66S368.46,325,395,315.4s24.9,16.47,31.33,17.67S454,323.44,464.44,354s43.37-12.85,58.23,29.32-55,78.32-84.34,64.66-22.09-51-30.92-60.24A29.61,29.61,0,0,0,387.74,378.46Z" transform="translate(-8 -234.28)"/><g id="Head-3" data-name="Head"><path class="cls-9" d="M423.48,396.93c-2.41,2.76-11.93,5.52-14.57,6.24l-.69.18-4.82-6.83s-.13.12-.37.3h0a9.76,9.76,0,0,1-5.23,2.1c-2.81,0-9.24-7.63-10.84-10.84s-6.83-24.9-6.83-24.9c18.88,9.24,30.12,4.42,30.12,4.42l3.21,6c.4-8.43,5.62-9.24,7.63-4.42s-1.61,11.65-1.61,11.65l6.43,11.65S426.29,393.72,423.48,396.93Z" transform="translate(-8 -234.28)"/><path class="cls-10" d="M415.45,375.25s0-4,1.2-5.22,2,.8,2,.8S416.25,371.63,415.45,375.25Z" transform="translate(-8 -234.28)"/><path class="cls-10" d="M411.43,387.7l-2.53,15.48-.69.18-4.82-6.83s-.13.12-.37.3A50.57,50.57,0,0,0,411.43,387.7Z" transform="translate(-8 -234.28)"/></g><g id="Body-3" data-name="Body"><path class="cls-6" d="M444,542.32c-17.33,5.68-37.48,3.33-47.78,1.46-4.26-.78-6.84-1.46-6.84-1.46s-.3-31.49.67-55.83c.15-3.69.33-7.22.54-10.44,1.61-24.5,2-46.59,5.62-51s11.25-13.66,11.25-13.66V403s19.13-14.88,22.45-16c.22-.07.37-.09.44,0,1.2.8,4,6,4,6s.28.15.79.48a35.83,35.83,0,0,1,7.07,6.39c6.1,7,14,20.08,17,42.93,1.24,9.35,2.48,18.27,3.67,26.5,3.82,26.41,7.15,45.73,8.37,49.41C472.88,523.44,468.46,534.29,444,542.32Z" transform="translate(-8 -234.28)"/><path class="cls-7" d="M462.9,469.22c-3.17,19.88-6.41,24-24.56,43.78-11.81,12.9-29,23.66-42.16,30.78-4.26-.78-6.84-1.46-6.84-1.46s-.3-31.49.67-55.83c30.77-22.69,31.67-40.43,38.69-66.67,3.27-12.23,8.54-17.74,13.49-20,6.1,7,14,20.08,17,42.93C460.46,452.07,461.71,461,462.9,469.22Z" transform="translate(-8 -234.28)"/><path class="cls-7" d="M435.11,393.4c-4.24,1.63-8.26,4.6-7.21,1.94a42.94,42.94,0,0,0,2-8.41c.22-.07.37-.09.44,0,1.2.8,4,6,4,6S434.6,393.07,435.11,393.4Z" transform="translate(-8 -234.28)"/></g><g id="Right_hand-3" data-name="Right hand"><path class="cls-6" d="M458.27,436.67c-1.35,20.06-3.06,47-9.89,52.23a9.24,9.24,0,0,1-4.4,1.86c-5.74.79-11.43-4-12.07-7.49-.58-3.18-1.78-12.79-2.1-29.58-.13-6.57-.13-14.23.1-23,.8-31.33,11.21-32.07,11.21-32.07C452.72,396.25,459.62,416.61,458.27,436.67Z" transform="translate(-8 -234.28)"/><path class="cls-9" d="M374.48,505s-11.25,4.42-14.86,4.82-11.65-.8-14.46-1.61-3.61,1.61-.8,2.81,5.62,1.61,6.43,2,.8.8.8.8-16.47,8-16.87,10.44,2,1.2,4.82,0,8-3.61,8-3.61-10.44,9.24-10.44,10.84,1.2,1.61,3.21.8,9.24-7.63,9.24-7.63-8,8-7.23,9.64,2,.8,3.21,0,7.23-6.43,7.23-6.43-5.62,8-5.22,8.84,1.2.8,3.21-1.2,6.83-6.43,8-6.83,8.84-3.21,10.84-5.62,7.63-6.43,10-7.63S374.48,505,374.48,505Z" transform="translate(-8 -234.28)"/><path class="cls-7" d="M444,490.77c-5.74.79-11.43-4-12.07-7.49-.58-3.18-1.78-12.79-2.1-29.58C433.89,457.63,444.79,470.09,444,490.77Z" transform="translate(-8 -234.28)"/><path class="cls-6" d="M430.43,465.07l-62,36.69S376.09,519,376.89,521s30.12-7.63,42.17-13.25,31.11-11.66,33.83-27.32S439.79,458.5,430.43,465.07Z" transform="translate(-8 -234.28)"/></g></g><g id="Layer_Elements"><rect class="cls-7" x="167.56" y="564.27" width="106.12" height="35.75" rx="11.93" ry="11.93"/><rect class="cls-7" x="663.55" y="89.5" width="106.12" height="35.75" rx="11.93" ry="11.93"/><rect class="cls-7" x="738.4" y="448.09" width="106.12" height="35.75" rx="11.93" ry="11.93"/><rect class="cls-7" y="453.68" width="106.12" height="68.14" rx="10.43" ry="10.43"/><rect class="cls-7" x="888.09" y="142.01" width="106.12" height="68.14" rx="10.43" ry="10.43"/><rect class="cls-7" x="886.97" y="488.31" width="106.12" height="68.14" rx="10.43" ry="10.43"/></g><g id="Layer_Plant"><g id="_Group_" data-name="&lt;Group&gt;"><g id="_Group_2" data-name="&lt;Group&gt;"><path id="_Path_" data-name="&lt;Path&gt;" class="cls-1" d="M575.18,836a104.94,104.94,0,0,1-4.55,25.42c-4.18,12.56-12.84,17.23-12.84,17.23-2.25-2.35-4.52-7.93,0-22s12-21.6,13.23-21.65-.95,4.5-1.05,4.73h0a7.92,7.92,0,0,0,2.6-1.53,24.89,24.89,0,0,0,2-2.47A.39.39,0,0,1,575.18,836Z" transform="translate(-8 -234.28)"/><path id="_Path_2" data-name="&lt;Path&gt;" class="cls-3" d="M569.93,839.74h0s-2.06,3.64-7,15.69a73.64,73.64,0,0,0-5.18,23.25c-2.25-2.35-4.52-7.93,0-22s12-21.6,13.23-21.65S570,839.51,569.93,839.74Z" transform="translate(-8 -234.28)"/></g><path id="_Path_3" data-name="&lt;Path&gt;" class="cls-13" d="M556.38,891.4s.24-3.15.75-7.86c.25-2.35.57-5.1,1-8s.88-6.06,1.53-9.15c.31-1.55.7-3.09,1.13-4.58s.92-3,1.41-4.34c1-2.79,2-5.35,3-7.53,1.87-4.35,3.29-7.17,3.29-7.17a.06.06,0,0,1,.11.06s-1.39,2.83-3.21,7.2c-.91,2.18-1.92,4.75-2.88,7.54-.48,1.4-.94,2.85-1.36,4.34s-.79,3-1.09,4.57c-.61,3.09-1.06,6.21-1.44,9.14s-.67,5.67-.9,8c-.46,4.71-.67,7.85-.67,7.85a.31.31,0,1,1-.61,0Z" transform="translate(-8 -234.28)"/></g><g id="_Group_3" data-name="&lt;Group&gt;"><g id="_Group_4" data-name="&lt;Group&gt;"><path id="_Path_4" data-name="&lt;Path&gt;" class="cls-1" d="M338.37,831.41a104.94,104.94,0,0,1-4.55,25.42C329.63,869.39,321,874.05,321,874.05c-2.25-2.35-4.52-7.93,0-22s12-21.6,13.23-21.65-.95,4.5-1.05,4.73h0a7.92,7.92,0,0,0,2.6-1.53,24.89,24.89,0,0,0,2-2.47A.39.39,0,0,1,338.37,831.41Z" transform="translate(-8 -234.28)"/><path id="_Path_5" data-name="&lt;Path&gt;" class="cls-3" d="M333.12,835.11h0s-2.06,3.64-7,15.69A73.64,73.64,0,0,0,321,874.05c-2.25-2.35-4.52-7.93,0-22s12-21.6,13.23-21.65S333.23,834.88,333.12,835.11Z" transform="translate(-8 -234.28)"/></g><path id="_Path_6" data-name="&lt;Path&gt;" class="cls-13" d="M319.57,886.77s.24-3.15.75-7.86c.25-2.35.57-5.1,1-8s.88-6.06,1.53-9.15c.31-1.55.7-3.09,1.13-4.58s.92-3,1.41-4.34c1-2.79,2-5.35,3-7.53,1.87-4.35,3.29-7.17,3.29-7.17a.06.06,0,0,1,.11.06s-1.39,2.83-3.21,7.2c-.91,2.18-1.92,4.75-2.88,7.54-.48,1.4-.94,2.85-1.36,4.34s-.79,3-1.09,4.57c-.61,3.09-1.06,6.21-1.44,9.14s-.67,5.67-.9,8c-.46,4.71-.67,7.85-.67,7.85a.31.31,0,1,1-.61,0Z" transform="translate(-8 -234.28)"/></g><g id="_Group_5" data-name="&lt;Group&gt;"><g id="_Group_6" data-name="&lt;Group&gt;"><path id="_Path_7" data-name="&lt;Path&gt;" class="cls-1" d="M300.26,842.84a84.07,84.07,0,0,0,3.65,20.37c3.35,10.06,10.28,13.8,10.28,13.8,1.8-1.88,3.62-6.36,0-17.65s-9.62-17.3-10.6-17.35.76,3.61.84,3.79h0a6.34,6.34,0,0,1-2.09-1.23,19.94,19.94,0,0,1-1.59-2A.31.31,0,0,0,300.26,842.84Z" transform="translate(-8 -234.28)"/><path id="_Path_8" data-name="&lt;Path&gt;" class="cls-3" d="M304.47,845.8h0A131.33,131.33,0,0,1,310,858.38,59,59,0,0,1,314.2,877c1.8-1.88,3.62-6.36,0-17.65s-9.62-17.3-10.6-17.35S304.38,845.62,304.47,845.8Z" transform="translate(-8 -234.28)"/></g><path id="_Path_9" data-name="&lt;Path&gt;" class="cls-13" d="M315.32,887.2s-.19-2.52-.6-6.3c-.2-1.89-.46-4.08-.78-6.43s-.71-4.85-1.22-7.33c-.25-1.24-.56-2.48-.91-3.67s-.74-2.36-1.13-3.48c-.79-2.24-1.63-4.29-2.37-6-1.49-3.49-2.63-5.75-2.63-5.75a.05.05,0,0,0-.09,0s1.12,2.27,2.57,5.77c.73,1.75,1.54,3.81,2.31,6,.39,1.12.75,2.28,1.09,3.48s.63,2.42.87,3.66c.49,2.47.85,5,1.15,7.32s.53,4.54.72,6.43c.37,3.77.54,6.29.54,6.29a.25.25,0,1,0,.49,0Z" transform="translate(-8 -234.28)"/></g><g id="_Group_7" data-name="&lt;Group&gt;"><g id="_Group_8" data-name="&lt;Group&gt;"><path id="_Path_10" data-name="&lt;Path&gt;" class="cls-1" d="M345.48,843.76a27.71,27.71,0,0,0-.85,9.57c.38,5.82,1.53,7.51,1.53,7.51s3.93-2.76,5.62-6.23,1.23-8.93,1.23-8.93S348.73,840.68,345.48,843.76Z" transform="translate(-8 -234.28)"/><path id="_Path_11" data-name="&lt;Path&gt;" class="cls-1" d="M367.31,874.78s-4.22.23-11.33-9.88-10.8-19.91-10.49-21.14a2.11,2.11,0,0,1,.54-.89c1.28-1.29,4.9-2,12.63,7.33C369.52,863.37,367.31,874.78,367.31,874.78Z" transform="translate(-8 -234.28)"/><path id="_Path_12" data-name="&lt;Path&gt;" class="cls-3" d="M367.31,874.78s-4.22.23-11.33-9.88-10.8-19.91-10.49-21.14a2.11,2.11,0,0,1,.54-.89c2.48,1.31,7.33,4.91,13.17,14.52C367.69,871.41,367.31,874.78,367.31,874.78Z" transform="translate(-8 -234.28)"/></g><path id="_Path_13" data-name="&lt;Path&gt;" class="cls-13" d="M369,890.27s.07-.64.1-1.8a42.58,42.58,0,0,0-.17-4.78c-.09-1-.22-2.06-.4-3.18s-.4-2.3-.7-3.51q-.21-.91-.47-1.83c-.16-.62-.36-1.23-.56-1.85-.38-1.26-.86-2.49-1.32-3.73s-1-2.45-1.57-3.64c-.26-.6-.56-1.18-.84-1.75s-.57-1.14-.86-1.69c-.58-1.1-1.18-2.15-1.75-3.14s-1.15-1.9-1.69-2.74a64.12,64.12,0,0,0-3.85-5.41.06.06,0,0,1,.09-.08,64.3,64.3,0,0,1,3.93,5.38c.55.83,1.13,1.75,1.73,2.73s1.2,2,1.79,3.13c.31.54.6,1.11.89,1.68s.59,1.15.87,1.75c.58,1.18,1.1,2.41,1.62,3.64s1,2.49,1.37,3.74c.21.62.42,1.24.59,1.86s.35,1.23.5,1.84c.31,1.21.54,2.4.75,3.54s.34,2.21.44,3.21a43.14,43.14,0,0,1,.23,4.85c0,1.17-.09,1.85-.09,1.85a.31.31,0,0,1-.61-.06Z" transform="translate(-8 -234.28)"/></g><path class="cls-1" d="M563.51,894.1h-2.36l-253.19.4-40.28-.41s1.62-1.41,4.11-3.4c6.5-5.2,19-14.41,24.18-13.14,7.22,1.76,11.44,2.86,19.31-4.87s19.05-15,40.21-2.58,27.55-24.4,53.9-14.58,44.69,34.15,70.26,18.79,57.9-11.29,54.71-.35,17.17,2.3,22.76,8A23.18,23.18,0,0,1,563.51,894.1Z" transform="translate(-8 -234.28)"/><path class="cls-3" d="M561.16,894.11l-253.19.4-40.28-.41s1.62-1.41,4.11-3.4c10.33-4.71,23-8.84,30.29-5.07,13.66,7.1,24.34-17.75,45.71-9.58s31.35,12.42,49.16,4.26,14.26-9,31.65-2.48,6.21-4.26,10.47-2.3,14,12.24,30.52,8.34,50.57-16.5,51.28-6,15.26,7.63,22.71,7.1C550.57,884.42,559,888,561.16,894.11Z" transform="translate(-8 -234.28)"/><g id="_Group_9" data-name="&lt;Group&gt;"><g id="_Group_10" data-name="&lt;Group&gt;"><path id="_Path_14" data-name="&lt;Path&gt;" class="cls-1" d="M508.85,865.19h0s-8-4.89-9.86-16.51-2.34-21-2.34-21h0a46,46,0,0,1,11.1,17.6C512.76,859.44,509,865,508.85,865.19Z" transform="translate(-8 -234.28)"/><path id="_Path_15" data-name="&lt;Path&gt;" class="cls-3" d="M508.85,865.19h0s.44-5.11-3-17.17a76,76,0,0,0-9.2-20.37,46,46,0,0,1,11.1,17.6C512.76,859.44,509,865,508.85,865.19Z" transform="translate(-8 -234.28)"/></g><path id="_Path_16" data-name="&lt;Path&gt;" class="cls-13" d="M509.67,885.82s0-3.22-.19-8.06l-.15-3.9c-.06-1.38-.13-2.84-.23-4.35s-.19-3.07-.33-4.65c-.06-.79-.13-1.59-.21-2.39s-.16-1.6-.26-2.4c-.18-1.6-.44-3.19-.73-4.75-.15-.78-.32-1.54-.48-2.31l-.54-2.24c-.38-1.46-.78-2.87-1.2-4.19s-.83-2.56-1.25-3.7a77.93,77.93,0,0,0-3.08-7.44.07.07,0,0,1,.12-.06,78.11,78.11,0,0,1,3.13,7.44c.42,1.14.85,2.38,1.27,3.7s.83,2.73,1.23,4.19l.56,2.24c.16.76.34,1.53.49,2.31.3,1.56.57,3.16.76,4.76q.16,1.2.27,2.4c.09.8.16,1.6.23,2.39.14,1.58.26,3.14.35,4.65s.18,3,.25,4.36l.18,3.91c.19,4.84.24,8.07.24,8.07a.22.22,0,0,1-.44,0Z" transform="translate(-8 -234.28)"/></g><g id="_Group_11" data-name="&lt;Group&gt;"><g id="_Group_12" data-name="&lt;Group&gt;"><path id="_Path_17" data-name="&lt;Path&gt;" class="cls-1" d="M525.61,845a75.06,75.06,0,0,1-3.26,18.18c-3,9-9.18,12.32-9.18,12.32-1.61-1.68-3.23-5.67,0-15.75s8.58-15.45,9.46-15.49-.68,3.22-.75,3.38h0a5.66,5.66,0,0,0,1.86-1.1,17.8,17.8,0,0,0,1.42-1.77A.28.28,0,0,1,525.61,845Z" transform="translate(-8 -234.28)"/><path id="_Path_18" data-name="&lt;Path&gt;" class="cls-3" d="M521.86,847.61h0a117.24,117.24,0,0,0-5,11.22,52.67,52.67,0,0,0-3.7,16.63c-1.61-1.68-3.23-5.67,0-15.75s8.58-15.45,9.46-15.49S521.93,847.45,521.86,847.61Z" transform="translate(-8 -234.28)"/></g><path id="_Path_19" data-name="&lt;Path&gt;" class="cls-13" d="M512.17,884.56s.17-2.25.53-5.62c.18-1.68.41-3.65.7-5.74s.63-4.33,1.09-6.55c.22-1.11.5-2.21.81-3.28s.66-2.11,1-3.11c.71-2,1.45-3.83,2.12-5.38,1.33-3.11,2.35-5.13,2.35-5.13a0,0,0,0,1,.08,0s-1,2-2.3,5.15c-.65,1.56-1.37,3.4-2.06,5.39-.34,1-.67,2-1,3.1s-.57,2.16-.78,3.27c-.44,2.21-.76,4.44-1,6.54s-.48,4.06-.64,5.74c-.33,3.37-.48,5.61-.48,5.61a.22.22,0,1,1-.44,0Z" transform="translate(-8 -234.28)"/></g><g id="_Group_13" data-name="&lt;Group&gt;"><g id="_Group_14" data-name="&lt;Group&gt;"><path id="_Path_20" data-name="&lt;Path&gt;" class="cls-1" d="M489.95,849.72a19.82,19.82,0,0,0-.6,6.84c.27,4.16,1.1,5.37,1.1,5.37a14.08,14.08,0,0,0,4-4.46c1.21-2.48.88-6.39.88-6.39S492.27,847.52,489.95,849.72Z" transform="translate(-8 -234.28)"/><path id="_Path_21" data-name="&lt;Path&gt;" class="cls-1" d="M505.56,871.91s-3,.17-8.11-7.06-7.72-14.24-7.5-15.12a1.51,1.51,0,0,1,.39-.64c.92-.92,3.51-1.45,9,5.24C507.14,863.75,505.56,871.91,505.56,871.91Z" transform="translate(-8 -234.28)"/><path id="_Path_22" data-name="&lt;Path&gt;" class="cls-3" d="M505.56,871.91s-3,.17-8.11-7.06-7.72-14.24-7.5-15.12a1.51,1.51,0,0,1,.39-.64c1.77.94,5.25,3.51,9.42,10.39C505.83,869.5,505.56,871.91,505.56,871.91Z" transform="translate(-8 -234.28)"/></g><path id="_Path_23" data-name="&lt;Path&gt;" class="cls-13" d="M506.8,883s.05-.46.07-1.29a30.45,30.45,0,0,0-.12-3.42c-.06-.71-.16-1.47-.28-2.27s-.29-1.65-.5-2.51q-.15-.65-.34-1.31c-.11-.44-.26-.88-.4-1.33-.27-.9-.61-1.78-.94-2.67s-.72-1.76-1.12-2.6c-.19-.43-.4-.84-.6-1.25s-.4-.82-.62-1.21c-.41-.79-.84-1.54-1.25-2.24s-.82-1.36-1.21-2a45.86,45.86,0,0,0-2.76-3.87,0,0,0,0,1,.07-.06,46,46,0,0,1,2.81,3.85c.39.6.81,1.25,1.23,1.95s.86,1.45,1.28,2.24c.22.39.43.79.63,1.2s.42.82.62,1.25c.41.84.79,1.72,1.16,2.6s.7,1.78,1,2.67c.15.44.3.89.42,1.33s.25.88.36,1.32c.22.87.39,1.72.53,2.53s.24,1.58.31,2.3a30.86,30.86,0,0,1,.16,3.47c0,.84-.06,1.32-.06,1.32a.22.22,0,0,1-.44,0Z" transform="translate(-8 -234.28)"/></g><g id="_Group_15" data-name="&lt;Group&gt;"><g id="_Group_16" data-name="&lt;Group&gt;"><path id="_Path_24" data-name="&lt;Path&gt;" class="cls-1" d="M407.2,863.42h0s-10.77-6.57-13.23-22.14-3.13-28.21-3.13-28.21h0a61.71,61.71,0,0,1,14.88,23.61C412.46,855.7,407.4,863.14,407.2,863.42Z" transform="translate(-8 -234.28)"/><path id="_Path_25" data-name="&lt;Path&gt;" class="cls-3" d="M407.2,863.42h0s.59-6.86-4-23a101.87,101.87,0,0,0-12.34-27.33,61.71,61.71,0,0,1,14.88,23.61C412.46,855.7,407.4,863.14,407.2,863.42Z" transform="translate(-8 -234.28)"/></g><path id="_Path_26" data-name="&lt;Path&gt;" class="cls-13" d="M408.3,891.1s0-4.32-.26-10.81l-.21-5.23c-.08-1.86-.18-3.81-.31-5.84s-.26-4.11-.44-6.23c-.08-1.06-.18-2.13-.29-3.2s-.22-2.15-.35-3.22c-.24-2.15-.59-4.27-1-6.37-.2-1-.43-2.07-.64-3.09l-.72-3c-.52-2-1-3.84-1.61-5.62s-1.12-3.44-1.67-5a104.53,104.53,0,0,0-4.13-10,.09.09,0,0,1,.16-.08,104.77,104.77,0,0,1,4.2,10c.56,1.52,1.14,3.19,1.71,5s1.12,3.66,1.65,5.62l.75,3c.22,1,.46,2.06.66,3.1.4,2.09.76,4.24,1,6.39q.21,1.61.37,3.23c.12,1.07.22,2.14.31,3.21.19,2.12.34,4.22.47,6.24s.24,4,.34,5.84l.24,5.24c.26,6.49.32,10.82.32,10.82a.29.29,0,0,1-.59,0Z" transform="translate(-8 -234.28)"/></g><g id="_Group_17" data-name="&lt;Group&gt;"><g id="_Group_18" data-name="&lt;Group&gt;"><path id="_Path_27" data-name="&lt;Path&gt;" class="cls-1" d="M429.69,836.29a100.67,100.67,0,0,1-4.37,24.39c-4,12-12.31,16.53-12.31,16.53-2.16-2.25-4.34-7.61,0-21.13s11.51-20.72,12.69-20.77-.91,4.32-1,4.54h0a7.59,7.59,0,0,0,2.5-1.47,23.88,23.88,0,0,0,1.9-2.37A.37.37,0,0,1,429.69,836.29Z" transform="translate(-8 -234.28)"/><path id="_Path_28" data-name="&lt;Path&gt;" class="cls-3" d="M424.66,839.84h0s-2,3.49-6.68,15.05a70.65,70.65,0,0,0-5,22.31c-2.16-2.25-4.34-7.61,0-21.13s11.51-20.72,12.69-20.77S424.76,839.62,424.66,839.84Z" transform="translate(-8 -234.28)"/></g><path id="_Path_29" data-name="&lt;Path&gt;" class="cls-13" d="M411.66,889.41s.23-3,.72-7.54c.24-2.26.55-4.89.93-7.7s.85-5.81,1.46-8.78c.3-1.48.67-3,1.09-4.39s.88-2.83,1.36-4.17c1-2.68,1.95-5.13,2.84-7.22,1.79-4.18,3.15-6.88,3.15-6.88a.06.06,0,0,1,.11.05s-1.34,2.72-3.08,6.9c-.87,2.09-1.84,4.56-2.76,7.24-.46,1.34-.9,2.73-1.31,4.16s-.76,2.89-1,4.38c-.59,3-1,6-1.38,8.77s-.64,5.44-.86,7.7c-.44,4.51-.65,7.53-.65,7.53a.29.29,0,1,1-.59,0Z" transform="translate(-8 -234.28)"/></g><g id="_Group_19" data-name="&lt;Group&gt;"><g id="_Group_20" data-name="&lt;Group&gt;"><path id="_Path_30" data-name="&lt;Path&gt;" class="cls-1" d="M381.85,842.68a26.58,26.58,0,0,0-.81,9.18c.37,5.58,1.47,7.2,1.47,7.2a18.89,18.89,0,0,0,5.39-6c1.62-3.33,1.18-8.57,1.18-8.57S385,839.72,381.85,842.68Z" transform="translate(-8 -234.28)"/><path id="_Path_31" data-name="&lt;Path&gt;" class="cls-1" d="M402.79,872.43s-4,.22-10.87-9.48-10.36-19.1-10.06-20.28a2,2,0,0,1,.52-.86c1.23-1.23,4.7-2,12.12,7C404.92,861.49,402.79,872.43,402.79,872.43Z" transform="translate(-8 -234.28)"/><path id="_Path_32" data-name="&lt;Path&gt;" class="cls-3" d="M402.79,872.43s-4,.22-10.87-9.48-10.36-19.1-10.06-20.28a2,2,0,0,1,.52-.86c2.37,1.26,7,4.71,12.63,13.93C403.16,869.2,402.79,872.43,402.79,872.43Z" transform="translate(-8 -234.28)"/></g><path id="_Path_33" data-name="&lt;Path&gt;" class="cls-13" d="M404.46,887.29s.07-.62.1-1.73a40.85,40.85,0,0,0-.16-4.59c-.08-.95-.21-2-.38-3.05s-.39-2.21-.67-3.37q-.2-.87-.45-1.76c-.15-.59-.35-1.18-.54-1.78-.37-1.21-.82-2.39-1.27-3.58s-1-2.35-1.51-3.49c-.25-.57-.53-1.13-.81-1.68s-.54-1.09-.83-1.62c-.55-1.06-1.13-2.06-1.68-3s-1.1-1.82-1.62-2.63a61.52,61.52,0,0,0-3.7-5.19.06.06,0,0,1,.09-.07,61.69,61.69,0,0,1,3.77,5.16c.53.8,1.08,1.68,1.66,2.62s1.15,1.94,1.72,3c.29.52.57,1.06.85,1.61s.57,1.1.83,1.68c.55,1.13,1.05,2.31,1.55,3.49s.94,2.39,1.32,3.59c.2.59.4,1.19.57,1.79s.34,1.18.48,1.77c.3,1.16.52,2.31.72,3.39s.32,2.12.42,3.08a41.39,41.39,0,0,1,.22,4.65c0,1.12-.08,1.78-.08,1.78a.29.29,0,0,1-.59-.05Z" transform="translate(-8 -234.28)"/></g><g id="_Group_21" data-name="&lt;Group&gt;"><g id="_Group_22" data-name="&lt;Group&gt;"><path id="_Path_34" data-name="&lt;Path&gt;" class="cls-1" d="M413.61,836a104.94,104.94,0,0,1-4.55,25.42c-4.18,12.56-12.84,17.23-12.84,17.23-2.25-2.35-4.52-7.93,0-22s12-21.6,13.23-21.65-.95,4.5-1.05,4.73h0a7.92,7.92,0,0,0,2.6-1.53,24.89,24.89,0,0,0,2-2.47A.39.39,0,0,1,413.61,836Z" transform="translate(-8 -234.28)"/><path id="_Path_35" data-name="&lt;Path&gt;" class="cls-3" d="M408.36,839.74h0s-2.06,3.64-7,15.69a73.64,73.64,0,0,0-5.18,23.25c-2.25-2.35-4.52-7.93,0-22s12-21.6,13.23-21.65S408.47,839.51,408.36,839.74Z" transform="translate(-8 -234.28)"/></g><path id="_Path_36" data-name="&lt;Path&gt;" class="cls-13" d="M394.81,891.4s.24-3.15.75-7.86c.25-2.35.57-5.1,1-8s.88-6.06,1.53-9.15c.31-1.55.7-3.09,1.13-4.58s.92-3,1.41-4.34c1-2.79,2-5.35,3-7.53,1.87-4.35,3.29-7.17,3.29-7.17a.06.06,0,0,1,.11.06s-1.39,2.83-3.21,7.2c-.91,2.18-1.92,4.75-2.88,7.54-.48,1.4-.94,2.85-1.36,4.34s-.79,3-1.09,4.57c-.61,3.09-1.06,6.21-1.44,9.14s-.67,5.67-.9,8c-.46,4.71-.67,7.85-.67,7.85a.31.31,0,1,1-.61,0Z" transform="translate(-8 -234.28)"/></g><g id="_Group_23" data-name="&lt;Group&gt;"><g id="_Group_24" data-name="&lt;Group&gt;"><path id="_Path_37" data-name="&lt;Path&gt;" class="cls-1" d="M176.8,831.41a104.94,104.94,0,0,1-4.55,25.42c-4.18,12.56-12.84,17.23-12.84,17.23-2.25-2.35-4.52-7.93,0-22s12-21.6,13.23-21.65-.95,4.5-1.05,4.73h0a7.92,7.92,0,0,0,2.6-1.53,24.89,24.89,0,0,0,2-2.47A.39.39,0,0,1,176.8,831.41Z" transform="translate(-8 -234.28)"/><path id="_Path_38" data-name="&lt;Path&gt;" class="cls-3" d="M171.55,835.11h0s-2.06,3.64-7,15.69a73.64,73.64,0,0,0-5.18,23.25c-2.25-2.35-4.52-7.93,0-22s12-21.6,13.23-21.65S171.66,834.88,171.55,835.11Z" transform="translate(-8 -234.28)"/></g><path id="_Path_39" data-name="&lt;Path&gt;" class="cls-13" d="M158,886.77s.24-3.15.75-7.86c.25-2.35.57-5.1,1-8s.88-6.06,1.53-9.15c.31-1.55.7-3.09,1.13-4.58s.92-3,1.41-4.34c1-2.79,2-5.35,3-7.53,1.87-4.35,3.29-7.17,3.29-7.17a.06.06,0,0,1,.11.06s-1.39,2.83-3.21,7.2c-.91,2.18-1.92,4.75-2.88,7.54-.48,1.4-.94,2.85-1.36,4.34s-.79,3-1.09,4.57c-.61,3.09-1.06,6.21-1.44,9.14s-.67,5.67-.9,8c-.46,4.71-.67,7.85-.67,7.85a.31.31,0,1,1-.61,0Z" transform="translate(-8 -234.28)"/></g><g id="_Group_25" data-name="&lt;Group&gt;"><g id="_Group_26" data-name="&lt;Group&gt;"><path id="_Path_40" data-name="&lt;Path&gt;" class="cls-1" d="M138.7,842.84a84.07,84.07,0,0,0,3.65,20.37c3.35,10.06,10.28,13.8,10.28,13.8,1.8-1.88,3.62-6.36,0-17.65S143,842.05,142.05,842s.76,3.61.84,3.79h0a6.34,6.34,0,0,1-2.09-1.23,19.94,19.94,0,0,1-1.59-2A.31.31,0,0,0,138.7,842.84Z" transform="translate(-8 -234.28)"/><path id="_Path_41" data-name="&lt;Path&gt;" class="cls-3" d="M142.9,845.8h0a131.33,131.33,0,0,1,5.58,12.57A59,59,0,0,1,152.63,877c1.8-1.88,3.62-6.36,0-17.65S143,842.05,142.05,842,142.81,845.62,142.9,845.8Z" transform="translate(-8 -234.28)"/></g><path id="_Path_42" data-name="&lt;Path&gt;" class="cls-13" d="M153.75,887.2s-.19-2.52-.6-6.3c-.2-1.89-.46-4.08-.78-6.43s-.71-4.85-1.22-7.33c-.25-1.24-.56-2.48-.91-3.67s-.74-2.36-1.13-3.48c-.79-2.24-1.63-4.29-2.37-6-1.49-3.49-2.63-5.75-2.63-5.75a.05.05,0,0,0-.09,0s1.12,2.27,2.57,5.77c.73,1.75,1.54,3.81,2.31,6,.39,1.12.75,2.28,1.09,3.48s.63,2.42.87,3.66c.49,2.47.85,5,1.15,7.32s.53,4.54.72,6.43c.37,3.77.54,6.29.54,6.29a.25.25,0,1,0,.49,0Z" transform="translate(-8 -234.28)"/></g><g id="_Group_27" data-name="&lt;Group&gt;"><g id="_Group_28" data-name="&lt;Group&gt;"><path id="_Path_43" data-name="&lt;Path&gt;" class="cls-1" d="M183.91,843.76a27.71,27.71,0,0,0-.85,9.57c.38,5.82,1.53,7.51,1.53,7.51s3.93-2.76,5.62-6.23,1.23-8.93,1.23-8.93S187.16,840.68,183.91,843.76Z" transform="translate(-8 -234.28)"/><path id="_Path_44" data-name="&lt;Path&gt;" class="cls-1" d="M205.74,874.78s-4.22.23-11.33-9.88-10.8-19.91-10.49-21.14a2.11,2.11,0,0,1,.54-.89c1.28-1.29,4.9-2,12.63,7.33C208,863.37,205.74,874.78,205.74,874.78Z" transform="translate(-8 -234.28)"/><path id="_Path_45" data-name="&lt;Path&gt;" class="cls-3" d="M205.74,874.78s-4.22.23-11.33-9.88-10.8-19.91-10.49-21.14a2.11,2.11,0,0,1,.54-.89c2.48,1.31,7.33,4.91,13.17,14.52C206.12,871.41,205.74,874.78,205.74,874.78Z" transform="translate(-8 -234.28)"/></g><path id="_Path_46" data-name="&lt;Path&gt;" class="cls-13" d="M207.48,890.27s.07-.64.1-1.8a42.58,42.58,0,0,0-.17-4.78c-.09-1-.22-2.06-.4-3.18s-.4-2.3-.7-3.51q-.21-.91-.47-1.83c-.16-.62-.36-1.23-.56-1.85-.38-1.26-.86-2.49-1.32-3.73s-1-2.45-1.57-3.64c-.26-.6-.56-1.18-.84-1.75s-.57-1.14-.86-1.69c-.58-1.1-1.18-2.15-1.75-3.14s-1.15-1.9-1.69-2.74a64.12,64.12,0,0,0-3.85-5.41.06.06,0,0,1,.09-.08,64.3,64.3,0,0,1,3.93,5.38c.55.83,1.13,1.75,1.73,2.73s1.2,2,1.79,3.13c.31.54.6,1.11.89,1.68s.59,1.15.87,1.75c.58,1.18,1.1,2.41,1.62,3.64s1,2.49,1.37,3.74c.21.62.42,1.24.59,1.86s.35,1.23.5,1.84c.31,1.21.54,2.4.75,3.54s.34,2.21.44,3.21a43.14,43.14,0,0,1,.23,4.85c0,1.17-.09,1.85-.09,1.85a.31.31,0,0,1-.61-.06Z" transform="translate(-8 -234.28)"/></g><path class="cls-1" d="M401.95,894.1h-2.36l-253.19.4-40.28-.41s1.62-1.41,4.11-3.4c6.5-5.2,19-14.41,24.18-13.14,7.22,1.76,11.44,2.86,19.31-4.87s19.05-15,40.21-2.58,27.55-24.4,53.9-14.58,44.69,34.15,70.26,18.79S376,863,372.8,874s17.17,2.3,22.76,8A23.18,23.18,0,0,1,401.95,894.1Z" transform="translate(-8 -234.28)"/><path class="cls-3" d="M399.59,894.11l-253.19.4-40.28-.41s1.62-1.41,4.11-3.4c10.33-4.71,23-8.84,30.29-5.07,13.66,7.1,24.34-17.75,45.71-9.58s31.35,12.42,49.16,4.26,14.26-9,31.65-2.48,6.21-4.26,10.47-2.3,14,12.24,30.52,8.34,50.57-16.5,51.28-6,15.26,7.63,22.71,7.1C389,884.42,397.39,888,399.59,894.11Z" transform="translate(-8 -234.28)"/><g id="_Group_29" data-name="&lt;Group&gt;"><g id="_Group_30" data-name="&lt;Group&gt;"><path id="_Path_47" data-name="&lt;Path&gt;" class="cls-1" d="M347.28,865.19h0s-8-4.89-9.86-16.51-2.34-21-2.34-21h0a46,46,0,0,1,11.1,17.6C351.2,859.44,347.42,865,347.28,865.19Z" transform="translate(-8 -234.28)"/><path id="_Path_48" data-name="&lt;Path&gt;" class="cls-3" d="M347.28,865.19h0s.44-5.11-3-17.17a76,76,0,0,0-9.2-20.37,46,46,0,0,1,11.1,17.6C351.2,859.44,347.42,865,347.28,865.19Z" transform="translate(-8 -234.28)"/></g><path id="_Path_49" data-name="&lt;Path&gt;" class="cls-13" d="M348.1,885.82s0-3.22-.19-8.06l-.15-3.9c-.06-1.38-.13-2.84-.23-4.35s-.19-3.07-.33-4.65c-.06-.79-.13-1.59-.21-2.39s-.16-1.6-.26-2.4c-.18-1.6-.44-3.19-.73-4.75-.15-.78-.32-1.54-.48-2.31l-.54-2.24c-.38-1.46-.78-2.87-1.2-4.19s-.83-2.56-1.25-3.7a77.93,77.93,0,0,0-3.08-7.44.07.07,0,0,1,.12-.06,78.11,78.11,0,0,1,3.13,7.44c.42,1.14.85,2.38,1.27,3.7s.83,2.73,1.23,4.19l.56,2.24c.16.76.34,1.53.49,2.31.3,1.56.57,3.16.76,4.76q.16,1.2.27,2.4c.09.8.16,1.6.23,2.39.14,1.58.26,3.14.35,4.65s.18,3,.25,4.36l.18,3.91c.19,4.84.24,8.07.24,8.07a.22.22,0,0,1-.44,0Z" transform="translate(-8 -234.28)"/></g><g id="_Group_31" data-name="&lt;Group&gt;"><g id="_Group_32" data-name="&lt;Group&gt;"><path id="_Path_50" data-name="&lt;Path&gt;" class="cls-1" d="M364,845a75.06,75.06,0,0,1-3.26,18.18c-3,9-9.18,12.32-9.18,12.32-1.61-1.68-3.23-5.67,0-15.75s8.58-15.45,9.46-15.49-.68,3.22-.75,3.38h0a5.66,5.66,0,0,0,1.86-1.1,17.8,17.8,0,0,0,1.42-1.77A.28.28,0,0,1,364,845Z" transform="translate(-8 -234.28)"/><path id="_Path_51" data-name="&lt;Path&gt;" class="cls-3" d="M360.29,847.61h0a117.24,117.24,0,0,0-5,11.22,52.67,52.67,0,0,0-3.7,16.63c-1.61-1.68-3.23-5.67,0-15.75s8.58-15.45,9.46-15.49S360.36,847.45,360.29,847.61Z" transform="translate(-8 -234.28)"/></g><path id="_Path_52" data-name="&lt;Path&gt;" class="cls-13" d="M350.6,884.56s.17-2.25.53-5.62c.18-1.68.41-3.65.7-5.74s.63-4.33,1.09-6.55c.22-1.11.5-2.21.81-3.28s.66-2.11,1-3.11c.71-2,1.45-3.83,2.12-5.38,1.33-3.11,2.35-5.13,2.35-5.13a0,0,0,0,1,.08,0s-1,2-2.3,5.15c-.65,1.56-1.37,3.4-2.06,5.39-.34,1-.67,2-1,3.1s-.57,2.16-.78,3.27c-.44,2.21-.76,4.44-1,6.54s-.48,4.06-.64,5.74c-.33,3.37-.48,5.61-.48,5.61a.22.22,0,1,1-.44,0Z" transform="translate(-8 -234.28)"/></g><g id="_Group_33" data-name="&lt;Group&gt;"><g id="_Group_34" data-name="&lt;Group&gt;"><path id="_Path_53" data-name="&lt;Path&gt;" class="cls-1" d="M328.38,849.72a19.82,19.82,0,0,0-.6,6.84c.27,4.16,1.1,5.37,1.1,5.37a14.08,14.08,0,0,0,4-4.46c1.21-2.48.88-6.39.88-6.39S330.7,847.52,328.38,849.72Z" transform="translate(-8 -234.28)"/><path id="_Path_54" data-name="&lt;Path&gt;" class="cls-1" d="M344,871.91s-3,.17-8.11-7.06-7.72-14.24-7.5-15.12a1.51,1.51,0,0,1,.39-.64c.92-.92,3.51-1.45,9,5.24C345.58,863.75,344,871.91,344,871.91Z" transform="translate(-8 -234.28)"/><path id="_Path_55" data-name="&lt;Path&gt;" class="cls-3" d="M344,871.91s-3,.17-8.11-7.06-7.72-14.24-7.5-15.12a1.51,1.51,0,0,1,.39-.64c1.77.94,5.25,3.51,9.42,10.39C344.26,869.5,344,871.91,344,871.91Z" transform="translate(-8 -234.28)"/></g><path id="_Path_56" data-name="&lt;Path&gt;" class="cls-13" d="M345.23,883s.05-.46.07-1.29a30.45,30.45,0,0,0-.12-3.42c-.06-.71-.16-1.47-.28-2.27s-.29-1.65-.5-2.51q-.15-.65-.34-1.31c-.11-.44-.26-.88-.4-1.33-.27-.9-.61-1.78-.94-2.67s-.72-1.76-1.12-2.6c-.19-.43-.4-.84-.6-1.25s-.4-.82-.62-1.21c-.41-.79-.84-1.54-1.25-2.24s-.82-1.36-1.21-2a45.86,45.86,0,0,0-2.76-3.87,0,0,0,0,1,.07-.06,46,46,0,0,1,2.81,3.85c.39.6.81,1.25,1.23,1.95s.86,1.45,1.28,2.24c.22.39.43.79.63,1.2s.42.82.62,1.25c.41.84.79,1.72,1.16,2.6s.7,1.78,1,2.67c.15.44.3.89.42,1.33s.25.88.36,1.32c.22.87.39,1.72.53,2.53s.24,1.58.31,2.3a30.86,30.86,0,0,1,.16,3.47c0,.84-.06,1.32-.06,1.32a.22.22,0,0,1-.44,0Z" transform="translate(-8 -234.28)"/></g><g id="_Group_35" data-name="&lt;Group&gt;"><g id="_Group_36" data-name="&lt;Group&gt;"><path id="_Path_57" data-name="&lt;Path&gt;" class="cls-1" d="M245.64,863.42h0s-10.77-6.57-13.23-22.14-3.13-28.21-3.13-28.21h0a61.71,61.71,0,0,1,14.88,23.61C250.89,855.7,245.83,863.14,245.64,863.42Z" transform="translate(-8 -234.28)"/><path id="_Path_58" data-name="&lt;Path&gt;" class="cls-3" d="M245.64,863.42h0s.59-6.86-4-23a101.87,101.87,0,0,0-12.34-27.33,61.71,61.71,0,0,1,14.88,23.61C250.89,855.7,245.83,863.14,245.64,863.42Z" transform="translate(-8 -234.28)"/></g><path id="_Path_59" data-name="&lt;Path&gt;" class="cls-13" d="M246.73,891.1s0-4.32-.26-10.81l-.21-5.23c-.08-1.86-.18-3.81-.31-5.84s-.26-4.11-.44-6.23c-.08-1.06-.18-2.13-.29-3.2s-.22-2.15-.35-3.22c-.24-2.15-.59-4.27-1-6.37-.2-1-.43-2.07-.64-3.09l-.72-3c-.52-2-1-3.84-1.61-5.62s-1.12-3.44-1.67-5a104.53,104.53,0,0,0-4.13-10,.09.09,0,0,1,.16-.08,104.77,104.77,0,0,1,4.2,10c.56,1.52,1.14,3.19,1.71,5s1.12,3.66,1.65,5.62l.75,3c.22,1,.46,2.06.66,3.1.4,2.09.76,4.24,1,6.39q.21,1.61.37,3.23c.12,1.07.22,2.14.31,3.21.19,2.12.34,4.22.47,6.24s.24,4,.34,5.84l.24,5.24c.26,6.49.32,10.82.32,10.82a.29.29,0,0,1-.59,0Z" transform="translate(-8 -234.28)"/></g><g id="_Group_37" data-name="&lt;Group&gt;"><g id="_Group_38" data-name="&lt;Group&gt;"><path id="_Path_60" data-name="&lt;Path&gt;" class="cls-1" d="M268.12,836.29a100.67,100.67,0,0,1-4.37,24.39c-4,12-12.31,16.53-12.31,16.53-2.16-2.25-4.34-7.61,0-21.13s11.51-20.72,12.69-20.77-.91,4.32-1,4.54h0a7.59,7.59,0,0,0,2.5-1.47,23.88,23.88,0,0,0,1.9-2.37A.37.37,0,0,1,268.12,836.29Z" transform="translate(-8 -234.28)"/><path id="_Path_61" data-name="&lt;Path&gt;" class="cls-3" d="M263.09,839.84h0s-2,3.49-6.68,15.05a70.65,70.65,0,0,0-5,22.31c-2.16-2.25-4.34-7.61,0-21.13s11.51-20.72,12.69-20.77S263.19,839.62,263.09,839.84Z" transform="translate(-8 -234.28)"/></g><path id="_Path_62" data-name="&lt;Path&gt;" class="cls-13" d="M250.09,889.41s.23-3,.72-7.54c.24-2.26.55-4.89.93-7.7s.85-5.81,1.46-8.78c.3-1.48.67-3,1.09-4.39s.88-2.83,1.36-4.17c1-2.68,1.95-5.13,2.84-7.22,1.79-4.18,3.15-6.88,3.15-6.88a.06.06,0,0,1,.11.05s-1.34,2.72-3.08,6.9c-.87,2.09-1.84,4.56-2.76,7.24-.46,1.34-.9,2.73-1.31,4.16s-.76,2.89-1,4.38c-.59,3-1,6-1.38,8.77s-.64,5.44-.86,7.7c-.44,4.51-.65,7.53-.65,7.53a.29.29,0,1,1-.59,0Z" transform="translate(-8 -234.28)"/></g><g id="_Group_39" data-name="&lt;Group&gt;"><g id="_Group_40" data-name="&lt;Group&gt;"><path id="_Path_63" data-name="&lt;Path&gt;" class="cls-1" d="M220.29,842.68a26.58,26.58,0,0,0-.81,9.18c.37,5.58,1.47,7.2,1.47,7.2a18.89,18.89,0,0,0,5.39-6c1.62-3.33,1.18-8.57,1.18-8.57S223.4,839.72,220.29,842.68Z" transform="translate(-8 -234.28)"/><path id="_Path_64" data-name="&lt;Path&gt;" class="cls-1" d="M241.22,872.43s-4,.22-10.87-9.48-10.36-19.1-10.06-20.28a2,2,0,0,1,.52-.86c1.23-1.23,4.7-2,12.12,7C243.35,861.49,241.22,872.43,241.22,872.43Z" transform="translate(-8 -234.28)"/><path id="_Path_65" data-name="&lt;Path&gt;" class="cls-3" d="M241.22,872.43s-4,.22-10.87-9.48-10.36-19.1-10.06-20.28a2,2,0,0,1,.52-.86c2.37,1.26,7,4.71,12.63,13.93C241.59,869.2,241.22,872.43,241.22,872.43Z" transform="translate(-8 -234.28)"/></g><path id="_Path_66" data-name="&lt;Path&gt;" class="cls-13" d="M242.89,887.29s.07-.62.1-1.73a40.85,40.85,0,0,0-.16-4.59c-.08-.95-.21-2-.38-3.05s-.39-2.21-.67-3.37q-.2-.87-.45-1.76c-.15-.59-.35-1.18-.54-1.78-.37-1.21-.82-2.39-1.27-3.58s-1-2.35-1.51-3.49c-.25-.57-.53-1.13-.81-1.68s-.54-1.09-.83-1.62c-.55-1.06-1.13-2.06-1.68-3s-1.1-1.82-1.62-2.63a61.52,61.52,0,0,0-3.7-5.19.06.06,0,0,1,.09-.07,61.69,61.69,0,0,1,3.77,5.16c.53.8,1.08,1.68,1.66,2.62s1.15,1.94,1.72,3c.29.52.57,1.06.85,1.61s.57,1.1.83,1.68c.55,1.13,1.05,2.31,1.55,3.49s.94,2.39,1.32,3.59c.2.59.4,1.19.57,1.79s.34,1.18.48,1.77c.3,1.16.52,2.31.72,3.39s.32,2.12.42,3.08a41.39,41.39,0,0,1,.22,4.65c0,1.12-.08,1.78-.08,1.78a.29.29,0,0,1-.59-.05Z" transform="translate(-8 -234.28)"/></g><g id="_Group_41" data-name="&lt;Group&gt;"><g id="_Group_42" data-name="&lt;Group&gt;"><path id="_Path_67" data-name="&lt;Path&gt;" class="cls-1" d="M1009.72,836a104.94,104.94,0,0,1-4.55,25.42c-4.18,12.56-12.84,17.23-12.84,17.23-2.25-2.35-4.52-7.93,0-22s12-21.6,13.23-21.65-.95,4.5-1.05,4.73h0a7.92,7.92,0,0,0,2.6-1.53,24.89,24.89,0,0,0,2-2.47A.39.39,0,0,1,1009.72,836Z" transform="translate(-8 -234.28)"/><path id="_Path_68" data-name="&lt;Path&gt;" class="cls-3" d="M1004.48,839.74h0s-2.06,3.64-7,15.69a73.64,73.64,0,0,0-5.18,23.25c-2.25-2.35-4.52-7.93,0-22s12-21.6,13.23-21.65S1004.58,839.51,1004.48,839.74Z" transform="translate(-8 -234.28)"/></g><path id="_Path_69" data-name="&lt;Path&gt;" class="cls-13" d="M990.93,891.4s.24-3.15.75-7.86c.25-2.35.57-5.1,1-8s.88-6.06,1.53-9.15c.31-1.55.7-3.09,1.13-4.58s.92-3,1.41-4.34c1-2.79,2-5.35,3-7.53,1.87-4.35,3.29-7.17,3.29-7.17a.06.06,0,0,1,.11.06s-1.39,2.83-3.21,7.2c-.91,2.18-1.92,4.75-2.88,7.54-.48,1.4-.94,2.85-1.36,4.34s-.79,3-1.09,4.57c-.61,3.09-1.06,6.21-1.44,9.14s-.67,5.67-.9,8c-.46,4.71-.67,7.85-.67,7.85a.31.31,0,1,1-.61,0Z" transform="translate(-8 -234.28)"/></g><g id="_Group_43" data-name="&lt;Group&gt;"><g id="_Group_44" data-name="&lt;Group&gt;"><path id="_Path_70" data-name="&lt;Path&gt;" class="cls-1" d="M772.92,831.41a104.94,104.94,0,0,1-4.55,25.42c-4.18,12.56-12.84,17.23-12.84,17.23-2.25-2.35-4.52-7.93,0-22s12-21.6,13.23-21.65-.95,4.5-1.05,4.73h0a7.92,7.92,0,0,0,2.6-1.53,24.89,24.89,0,0,0,2-2.47A.39.39,0,0,1,772.92,831.41Z" transform="translate(-8 -234.28)"/><path id="_Path_71" data-name="&lt;Path&gt;" class="cls-3" d="M767.67,835.11h0s-2.06,3.64-7,15.69a73.64,73.64,0,0,0-5.18,23.25c-2.25-2.35-4.52-7.93,0-22s12-21.6,13.23-21.65S767.77,834.88,767.67,835.11Z" transform="translate(-8 -234.28)"/></g><path id="_Path_72" data-name="&lt;Path&gt;" class="cls-13" d="M754.12,886.77s.24-3.15.75-7.86c.25-2.35.57-5.1,1-8s.88-6.06,1.53-9.15c.31-1.55.7-3.09,1.13-4.58s.92-3,1.41-4.34c1-2.79,2-5.35,3-7.53,1.87-4.35,3.29-7.17,3.29-7.17a.06.06,0,0,1,.11.06s-1.39,2.83-3.21,7.2c-.91,2.18-1.92,4.75-2.88,7.54-.48,1.4-.94,2.85-1.36,4.34s-.79,3-1.09,4.57c-.61,3.09-1.06,6.21-1.44,9.14s-.67,5.67-.9,8c-.46,4.71-.67,7.85-.67,7.85a.31.31,0,1,1-.61,0Z" transform="translate(-8 -234.28)"/></g><g id="_Group_45" data-name="&lt;Group&gt;"><g id="_Group_46" data-name="&lt;Group&gt;"><path id="_Path_73" data-name="&lt;Path&gt;" class="cls-1" d="M734.81,842.84a84.07,84.07,0,0,0,3.65,20.37c3.35,10.06,10.28,13.8,10.28,13.8,1.8-1.88,3.62-6.36,0-17.65s-9.62-17.3-10.6-17.35.76,3.61.84,3.79h0a6.34,6.34,0,0,1-2.09-1.23,19.94,19.94,0,0,1-1.59-2A.31.31,0,0,0,734.81,842.84Z" transform="translate(-8 -234.28)"/><path id="_Path_74" data-name="&lt;Path&gt;" class="cls-3" d="M739,845.8h0a131.33,131.33,0,0,1,5.58,12.57A59,59,0,0,1,748.74,877c1.8-1.88,3.62-6.36,0-17.65s-9.62-17.3-10.6-17.35S738.93,845.62,739,845.8Z" transform="translate(-8 -234.28)"/></g><path id="_Path_75" data-name="&lt;Path&gt;" class="cls-13" d="M749.87,887.2s-.19-2.52-.6-6.3c-.2-1.89-.46-4.08-.78-6.43s-.71-4.85-1.22-7.33c-.25-1.24-.56-2.48-.91-3.67s-.74-2.36-1.13-3.48c-.79-2.24-1.63-4.29-2.37-6-1.49-3.49-2.63-5.75-2.63-5.75a.05.05,0,0,0-.09,0s1.12,2.27,2.57,5.77c.73,1.75,1.54,3.81,2.31,6,.39,1.12.75,2.28,1.09,3.48s.63,2.42.87,3.66c.49,2.47.85,5,1.15,7.32s.53,4.54.72,6.43c.37,3.77.54,6.29.54,6.29a.25.25,0,1,0,.49,0Z" transform="translate(-8 -234.28)"/></g><g id="_Group_47" data-name="&lt;Group&gt;"><g id="_Group_48" data-name="&lt;Group&gt;"><path id="_Path_76" data-name="&lt;Path&gt;" class="cls-1" d="M780,843.76a27.71,27.71,0,0,0-.85,9.57c.38,5.82,1.53,7.51,1.53,7.51s3.93-2.76,5.62-6.23,1.23-8.93,1.23-8.93S783.28,840.68,780,843.76Z" transform="translate(-8 -234.28)"/><path id="_Path_77" data-name="&lt;Path&gt;" class="cls-1" d="M801.86,874.78s-4.22.23-11.33-9.88S779.73,845,780,843.76a2.11,2.11,0,0,1,.54-.89c1.28-1.29,4.9-2,12.63,7.33C804.07,863.37,801.86,874.78,801.86,874.78Z" transform="translate(-8 -234.28)"/><path id="_Path_78" data-name="&lt;Path&gt;" class="cls-3" d="M801.86,874.78s-4.22.23-11.33-9.88S779.73,845,780,843.76a2.11,2.11,0,0,1,.54-.89c2.48,1.31,7.33,4.91,13.17,14.52C802.24,871.41,801.86,874.78,801.86,874.78Z" transform="translate(-8 -234.28)"/></g><path id="_Path_79" data-name="&lt;Path&gt;" class="cls-13" d="M803.59,890.27s.07-.64.1-1.8a42.58,42.58,0,0,0-.17-4.78c-.09-1-.22-2.06-.4-3.18s-.4-2.3-.7-3.51q-.21-.91-.47-1.83c-.16-.62-.36-1.23-.56-1.85-.38-1.26-.86-2.49-1.32-3.73s-1-2.45-1.57-3.64c-.26-.6-.56-1.18-.84-1.75s-.57-1.14-.86-1.69c-.58-1.1-1.18-2.15-1.75-3.14s-1.15-1.9-1.69-2.74a64.12,64.12,0,0,0-3.85-5.41.06.06,0,0,1,.09-.08,64.3,64.3,0,0,1,3.93,5.38c.55.83,1.13,1.75,1.73,2.73s1.2,2,1.79,3.13c.31.54.6,1.11.89,1.68s.59,1.15.87,1.75c.58,1.18,1.1,2.41,1.62,3.64s1,2.49,1.37,3.74c.21.62.42,1.24.59,1.86s.35,1.23.5,1.84c.31,1.21.54,2.4.75,3.54s.34,2.21.44,3.21a43.14,43.14,0,0,1,.23,4.85c0,1.17-.09,1.85-.09,1.85a.31.31,0,0,1-.61-.06Z" transform="translate(-8 -234.28)"/></g><path class="cls-1" d="M998.06,894.1h-2.36l-253.19.4-40.28-.41s1.62-1.41,4.11-3.4c6.5-5.2,19-14.41,24.18-13.14,7.22,1.76,11.44,2.86,19.31-4.87s19.05-15,40.21-2.58,27.55-24.4,53.9-14.58,44.69,34.15,70.26,18.79,57.9-11.29,54.71-.35,17.17,2.3,22.76,8A23.18,23.18,0,0,1,998.06,894.1Z" transform="translate(-8 -234.28)"/><path class="cls-3" d="M995.71,894.11l-253.19.4-40.28-.41s1.62-1.41,4.11-3.4c10.33-4.71,23-8.84,30.29-5.07,13.66,7.1,24.34-17.75,45.71-9.58s31.35,12.42,49.16,4.26,14.26-9,31.65-2.48,6.21-4.26,10.47-2.3,14,12.24,30.52,8.34,50.57-16.5,51.28-6,15.26,7.63,22.71,7.1C985.12,884.42,993.5,888,995.71,894.11Z" transform="translate(-8 -234.28)"/><g id="_Group_49" data-name="&lt;Group&gt;"><g id="_Group_50" data-name="&lt;Group&gt;"><path id="_Path_80" data-name="&lt;Path&gt;" class="cls-1" d="M943.4,865.19h0s-8-4.89-9.86-16.51-2.34-21-2.34-21h0a46,46,0,0,1,11.1,17.6C947.31,859.44,943.54,865,943.4,865.19Z" transform="translate(-8 -234.28)"/><path id="_Path_81" data-name="&lt;Path&gt;" class="cls-3" d="M943.4,865.19h0s.44-5.11-3-17.17a76,76,0,0,0-9.2-20.37,46,46,0,0,1,11.1,17.6C947.31,859.44,943.54,865,943.4,865.19Z" transform="translate(-8 -234.28)"/></g><path id="_Path_82" data-name="&lt;Path&gt;" class="cls-13" d="M944.21,885.82s0-3.22-.19-8.06l-.15-3.9c-.06-1.38-.13-2.84-.23-4.35s-.19-3.07-.33-4.65c-.06-.79-.13-1.59-.21-2.39s-.16-1.6-.26-2.4c-.18-1.6-.44-3.19-.73-4.75-.15-.78-.32-1.54-.48-2.31l-.54-2.24c-.38-1.46-.78-2.87-1.2-4.19s-.83-2.56-1.25-3.7a77.93,77.93,0,0,0-3.08-7.44.07.07,0,0,1,.12-.06,78.11,78.11,0,0,1,3.13,7.44c.42,1.14.85,2.38,1.27,3.7s.83,2.73,1.23,4.19l.56,2.24c.16.76.34,1.53.49,2.31.3,1.56.57,3.16.76,4.76q.16,1.2.27,2.4c.09.8.16,1.6.23,2.39.14,1.58.26,3.14.35,4.65s.18,3,.25,4.36l.18,3.91c.19,4.84.24,8.07.24,8.07a.22.22,0,0,1-.44,0Z" transform="translate(-8 -234.28)"/></g><g id="_Group_51" data-name="&lt;Group&gt;"><g id="_Group_52" data-name="&lt;Group&gt;"><path id="_Path_83" data-name="&lt;Path&gt;" class="cls-1" d="M960.16,845a75.06,75.06,0,0,1-3.26,18.18c-3,9-9.18,12.32-9.18,12.32-1.61-1.68-3.23-5.67,0-15.75s8.58-15.45,9.46-15.49-.68,3.22-.75,3.38h0a5.66,5.66,0,0,0,1.86-1.1,17.8,17.8,0,0,0,1.42-1.77A.28.28,0,0,1,960.16,845Z" transform="translate(-8 -234.28)"/><path id="_Path_84" data-name="&lt;Path&gt;" class="cls-3" d="M956.41,847.61h0a117.24,117.24,0,0,0-5,11.22,52.67,52.67,0,0,0-3.7,16.63c-1.61-1.68-3.23-5.67,0-15.75s8.58-15.45,9.46-15.49S956.48,847.45,956.41,847.61Z" transform="translate(-8 -234.28)"/></g><path id="_Path_85" data-name="&lt;Path&gt;" class="cls-13" d="M946.72,884.56s.17-2.25.53-5.62c.18-1.68.41-3.65.7-5.74s.63-4.33,1.09-6.55c.22-1.11.5-2.21.81-3.28s.66-2.11,1-3.11c.71-2,1.45-3.83,2.12-5.38,1.33-3.11,2.35-5.13,2.35-5.13a0,0,0,0,1,.08,0s-1,2-2.3,5.15c-.65,1.56-1.37,3.4-2.06,5.39-.34,1-.67,2-1,3.1s-.57,2.16-.78,3.27c-.44,2.21-.76,4.44-1,6.54s-.48,4.06-.64,5.74c-.33,3.37-.48,5.61-.48,5.61a.22.22,0,1,1-.44,0Z" transform="translate(-8 -234.28)"/></g><g id="_Group_53" data-name="&lt;Group&gt;"><g id="_Group_54" data-name="&lt;Group&gt;"><path id="_Path_86" data-name="&lt;Path&gt;" class="cls-1" d="M924.5,849.72a19.82,19.82,0,0,0-.6,6.84c.27,4.16,1.1,5.37,1.1,5.37a14.08,14.08,0,0,0,4-4.46c1.21-2.48.88-6.39.88-6.39S926.82,847.52,924.5,849.72Z" transform="translate(-8 -234.28)"/><path id="_Path_87" data-name="&lt;Path&gt;" class="cls-1" d="M940.11,871.91s-3,.17-8.11-7.06-7.72-14.24-7.5-15.12a1.51,1.51,0,0,1,.39-.64c.92-.92,3.51-1.45,9,5.24C941.69,863.75,940.11,871.91,940.11,871.91Z" transform="translate(-8 -234.28)"/><path id="_Path_88" data-name="&lt;Path&gt;" class="cls-3" d="M940.11,871.91s-3,.17-8.11-7.06-7.72-14.24-7.5-15.12a1.51,1.51,0,0,1,.39-.64c1.77.94,5.25,3.51,9.42,10.39C940.38,869.5,940.11,871.91,940.11,871.91Z" transform="translate(-8 -234.28)"/></g><path id="_Path_89" data-name="&lt;Path&gt;" class="cls-13" d="M941.35,883s.05-.46.07-1.29a30.45,30.45,0,0,0-.12-3.42c-.06-.71-.16-1.47-.28-2.27s-.29-1.65-.5-2.51q-.15-.65-.34-1.31c-.11-.44-.26-.88-.4-1.33-.27-.9-.61-1.78-.94-2.67s-.72-1.76-1.12-2.6c-.19-.43-.4-.84-.6-1.25s-.4-.82-.62-1.21c-.41-.79-.84-1.54-1.25-2.24s-.82-1.36-1.21-2a45.86,45.86,0,0,0-2.76-3.87,0,0,0,0,1,.07-.06,46,46,0,0,1,2.81,3.85c.39.6.81,1.25,1.23,1.95s.86,1.45,1.28,2.24c.22.39.43.79.63,1.2s.42.82.62,1.25c.41.84.79,1.72,1.16,2.6s.7,1.78,1,2.67c.15.44.3.89.42,1.33s.25.88.36,1.32c.22.87.39,1.72.53,2.53s.24,1.58.31,2.3a30.86,30.86,0,0,1,.16,3.47c0,.84-.06,1.32-.06,1.32a.22.22,0,0,1-.44,0Z" transform="translate(-8 -234.28)"/></g><g id="_Group_55" data-name="&lt;Group&gt;"><g id="_Group_56" data-name="&lt;Group&gt;"><path id="_Path_90" data-name="&lt;Path&gt;" class="cls-1" d="M841.75,863.42h0s-10.77-6.57-13.23-22.14-3.13-28.21-3.13-28.21h0a61.71,61.71,0,0,1,14.88,23.61C847,855.7,841.95,863.14,841.75,863.42Z" transform="translate(-8 -234.28)"/><path id="_Path_91" data-name="&lt;Path&gt;" class="cls-3" d="M841.75,863.42h0s.59-6.86-4-23a101.87,101.87,0,0,0-12.34-27.33,61.71,61.71,0,0,1,14.88,23.61C847,855.7,841.95,863.14,841.75,863.42Z" transform="translate(-8 -234.28)"/></g><path id="_Path_92" data-name="&lt;Path&gt;" class="cls-13" d="M842.85,891.1s0-4.32-.26-10.81l-.21-5.23c-.08-1.86-.18-3.81-.31-5.84s-.26-4.11-.44-6.23c-.08-1.06-.18-2.13-.29-3.2s-.22-2.15-.35-3.22c-.24-2.15-.59-4.27-1-6.37-.2-1-.43-2.07-.64-3.09l-.72-3c-.52-2-1-3.84-1.61-5.62s-1.12-3.44-1.67-5a104.53,104.53,0,0,0-4.13-10,.09.09,0,0,1,.16-.08,104.77,104.77,0,0,1,4.2,10c.56,1.52,1.14,3.19,1.71,5s1.12,3.66,1.65,5.62l.75,3c.22,1,.46,2.06.66,3.1.4,2.09.76,4.24,1,6.39q.21,1.61.37,3.23c.12,1.07.22,2.14.31,3.21.19,2.12.34,4.22.47,6.24s.24,4,.34,5.84l.24,5.24c.26,6.49.32,10.82.32,10.82a.29.29,0,0,1-.59,0Z" transform="translate(-8 -234.28)"/></g><g id="_Group_57" data-name="&lt;Group&gt;"><g id="_Group_58" data-name="&lt;Group&gt;"><path id="_Path_93" data-name="&lt;Path&gt;" class="cls-1" d="M864.24,836.29a100.67,100.67,0,0,1-4.37,24.39c-4,12-12.31,16.53-12.31,16.53-2.16-2.25-4.34-7.61,0-21.13S859,835.35,860.22,835.3s-.91,4.32-1,4.54h0a7.59,7.59,0,0,0,2.5-1.47,23.88,23.88,0,0,0,1.9-2.37A.37.37,0,0,1,864.24,836.29Z" transform="translate(-8 -234.28)"/><path id="_Path_94" data-name="&lt;Path&gt;" class="cls-3" d="M859.21,839.84h0s-2,3.49-6.68,15.05a70.65,70.65,0,0,0-5,22.31c-2.16-2.25-4.34-7.61,0-21.13S859,835.35,860.22,835.3,859.31,839.62,859.21,839.84Z" transform="translate(-8 -234.28)"/></g><path id="_Path_95" data-name="&lt;Path&gt;" class="cls-13" d="M846.21,889.41s.23-3,.72-7.54c.24-2.26.55-4.89.93-7.7s.85-5.81,1.46-8.78c.3-1.48.67-3,1.09-4.39s.88-2.83,1.36-4.17c1-2.68,1.95-5.13,2.84-7.22,1.79-4.18,3.15-6.88,3.15-6.88a.06.06,0,0,1,.11.05s-1.34,2.72-3.08,6.9c-.87,2.09-1.84,4.56-2.76,7.24-.46,1.34-.9,2.73-1.31,4.16s-.76,2.89-1,4.38c-.59,3-1,6-1.38,8.77s-.64,5.44-.86,7.7c-.44,4.51-.65,7.53-.65,7.53a.29.29,0,1,1-.59,0Z" transform="translate(-8 -234.28)"/></g><g id="_Group_59" data-name="&lt;Group&gt;"><g id="_Group_60" data-name="&lt;Group&gt;"><path id="_Path_96" data-name="&lt;Path&gt;" class="cls-1" d="M816.4,842.68a26.58,26.58,0,0,0-.81,9.18c.37,5.58,1.47,7.2,1.47,7.2a18.89,18.89,0,0,0,5.39-6c1.62-3.33,1.18-8.57,1.18-8.57S819.52,839.72,816.4,842.68Z" transform="translate(-8 -234.28)"/><path id="_Path_97" data-name="&lt;Path&gt;" class="cls-1" d="M837.34,872.43s-4,.22-10.87-9.48-10.36-19.1-10.06-20.28a2,2,0,0,1,.52-.86c1.23-1.23,4.7-2,12.12,7C839.47,861.49,837.34,872.43,837.34,872.43Z" transform="translate(-8 -234.28)"/><path id="_Path_98" data-name="&lt;Path&gt;" class="cls-3" d="M837.34,872.43s-4,.22-10.87-9.48-10.36-19.1-10.06-20.28a2,2,0,0,1,.52-.86c2.37,1.26,7,4.71,12.63,13.93C837.7,869.2,837.34,872.43,837.34,872.43Z" transform="translate(-8 -234.28)"/></g><path id="_Path_99" data-name="&lt;Path&gt;" class="cls-13" d="M839,887.29s.07-.62.1-1.73a40.85,40.85,0,0,0-.16-4.59c-.08-.95-.21-2-.38-3.05s-.39-2.21-.67-3.37q-.2-.87-.45-1.76c-.15-.59-.35-1.18-.54-1.78-.37-1.21-.82-2.39-1.27-3.58s-1-2.35-1.51-3.49c-.25-.57-.53-1.13-.81-1.68s-.54-1.09-.83-1.62c-.55-1.06-1.13-2.06-1.68-3s-1.1-1.82-1.62-2.63a61.52,61.52,0,0,0-3.7-5.19.06.06,0,0,1,.09-.07,61.69,61.69,0,0,1,3.77,5.16c.53.8,1.08,1.68,1.66,2.62s1.15,1.94,1.72,3c.29.52.57,1.06.85,1.61s.57,1.1.83,1.68c.55,1.13,1.05,2.31,1.55,3.49s.94,2.39,1.32,3.59c.2.59.4,1.19.57,1.79s.34,1.18.48,1.77c.3,1.16.52,2.31.72,3.39s.32,2.12.42,3.08a41.39,41.39,0,0,1,.22,4.65c0,1.12-.08,1.78-.08,1.78a.29.29,0,0,1-.59-.05Z" transform="translate(-8 -234.28)"/></g><g id="_Group_61" data-name="&lt;Group&gt;"><g id="_Group_62" data-name="&lt;Group&gt;"><path id="_Path_100" data-name="&lt;Path&gt;" class="cls-1" d="M848.16,836a104.94,104.94,0,0,1-4.55,25.42c-4.18,12.56-12.84,17.23-12.84,17.23-2.25-2.35-4.52-7.93,0-22s12-21.6,13.23-21.65-.95,4.5-1.05,4.73h0a7.92,7.92,0,0,0,2.6-1.53,24.89,24.89,0,0,0,2-2.47A.39.39,0,0,1,848.16,836Z" transform="translate(-8 -234.28)"/><path id="_Path_101" data-name="&lt;Path&gt;" class="cls-3" d="M842.91,839.74h0s-2.06,3.64-7,15.69a73.64,73.64,0,0,0-5.18,23.25c-2.25-2.35-4.52-7.93,0-22s12-21.6,13.23-21.65S843,839.51,842.91,839.74Z" transform="translate(-8 -234.28)"/></g><path id="_Path_102" data-name="&lt;Path&gt;" class="cls-13" d="M829.36,891.4s.24-3.15.75-7.86c.25-2.35.57-5.1,1-8s.88-6.06,1.53-9.15c.31-1.55.7-3.09,1.13-4.58s.92-3,1.41-4.34c1-2.79,2-5.35,3-7.53,1.87-4.35,3.29-7.17,3.29-7.17a.06.06,0,0,1,.11.06s-1.39,2.83-3.21,7.2c-.91,2.18-1.92,4.75-2.88,7.54-.48,1.4-.94,2.85-1.36,4.34s-.79,3-1.09,4.57c-.61,3.09-1.06,6.21-1.44,9.14s-.67,5.67-.9,8c-.46,4.71-.67,7.85-.67,7.85a.31.31,0,1,1-.61,0Z" transform="translate(-8 -234.28)"/></g><g id="_Group_63" data-name="&lt;Group&gt;"><g id="_Group_64" data-name="&lt;Group&gt;"><path id="_Path_103" data-name="&lt;Path&gt;" class="cls-1" d="M611.35,831.41a104.94,104.94,0,0,1-4.55,25.42C602.61,869.39,594,874.05,594,874.05c-2.25-2.35-4.52-7.93,0-22s12-21.6,13.23-21.65-.95,4.5-1.05,4.73h0a7.92,7.92,0,0,0,2.6-1.53,24.89,24.89,0,0,0,2-2.47A.39.39,0,0,1,611.35,831.41Z" transform="translate(-8 -234.28)"/><path id="_Path_104" data-name="&lt;Path&gt;" class="cls-3" d="M606.1,835.11h0s-2.06,3.64-7,15.69A73.64,73.64,0,0,0,594,874.05c-2.25-2.35-4.52-7.93,0-22s12-21.6,13.23-21.65S606.21,834.88,606.1,835.11Z" transform="translate(-8 -234.28)"/></g><path id="_Path_105" data-name="&lt;Path&gt;" class="cls-13" d="M592.55,886.77s.24-3.15.75-7.86c.25-2.35.57-5.1,1-8s.88-6.06,1.53-9.15c.31-1.55.7-3.09,1.13-4.58s.92-3,1.41-4.34c1-2.79,2-5.35,3-7.53,1.87-4.35,3.29-7.17,3.29-7.17a.06.06,0,0,1,.11.06s-1.39,2.83-3.21,7.2c-.91,2.18-1.92,4.75-2.88,7.54-.48,1.4-.94,2.85-1.36,4.34s-.79,3-1.09,4.57c-.61,3.09-1.06,6.21-1.44,9.14s-.67,5.67-.9,8c-.46,4.71-.67,7.85-.67,7.85a.31.31,0,1,1-.61,0Z" transform="translate(-8 -234.28)"/></g><g id="_Group_65" data-name="&lt;Group&gt;"><g id="_Group_66" data-name="&lt;Group&gt;"><path id="_Path_106" data-name="&lt;Path&gt;" class="cls-1" d="M573.25,842.84a84.07,84.07,0,0,0,3.65,20.37c3.35,10.06,10.28,13.8,10.28,13.8,1.8-1.88,3.62-6.36,0-17.65s-9.62-17.3-10.6-17.35.76,3.61.84,3.79h0a6.34,6.34,0,0,1-2.09-1.23,19.94,19.94,0,0,1-1.59-2A.31.31,0,0,0,573.25,842.84Z" transform="translate(-8 -234.28)"/><path id="_Path_107" data-name="&lt;Path&gt;" class="cls-3" d="M577.45,845.8h0A131.33,131.33,0,0,1,583,858.38,59,59,0,0,1,587.18,877c1.8-1.88,3.62-6.36,0-17.65s-9.62-17.3-10.6-17.35S577.36,845.62,577.45,845.8Z" transform="translate(-8 -234.28)"/></g><path id="_Path_108" data-name="&lt;Path&gt;" class="cls-13" d="M588.3,887.2s-.19-2.52-.6-6.3c-.2-1.89-.46-4.08-.78-6.43s-.71-4.85-1.22-7.33c-.25-1.24-.56-2.48-.91-3.67s-.74-2.36-1.13-3.48c-.79-2.24-1.63-4.29-2.37-6-1.49-3.49-2.63-5.75-2.63-5.75a.05.05,0,0,0-.09,0s1.12,2.27,2.57,5.77c.73,1.75,1.54,3.81,2.31,6,.39,1.12.75,2.28,1.09,3.48s.63,2.42.87,3.66c.49,2.47.85,5,1.15,7.32s.53,4.54.72,6.43c.37,3.77.54,6.29.54,6.29a.25.25,0,1,0,.49,0Z" transform="translate(-8 -234.28)"/></g><g id="_Group_67" data-name="&lt;Group&gt;"><g id="_Group_68" data-name="&lt;Group&gt;"><path id="_Path_109" data-name="&lt;Path&gt;" class="cls-1" d="M618.46,843.76a27.71,27.71,0,0,0-.85,9.57c.38,5.82,1.53,7.51,1.53,7.51s3.93-2.76,5.62-6.23,1.23-8.93,1.23-8.93S621.71,840.68,618.46,843.76Z" transform="translate(-8 -234.28)"/><path id="_Path_110" data-name="&lt;Path&gt;" class="cls-1" d="M640.29,874.78s-4.22.23-11.33-9.88-10.8-19.91-10.49-21.14a2.11,2.11,0,0,1,.54-.89c1.28-1.29,4.9-2,12.63,7.33C642.51,863.37,640.29,874.78,640.29,874.78Z" transform="translate(-8 -234.28)"/><path id="_Path_111" data-name="&lt;Path&gt;" class="cls-3" d="M640.29,874.78s-4.22.23-11.33-9.88-10.8-19.91-10.49-21.14a2.11,2.11,0,0,1,.54-.89c2.48,1.31,7.33,4.91,13.17,14.52C640.67,871.41,640.29,874.78,640.29,874.78Z" transform="translate(-8 -234.28)"/></g><path id="_Path_112" data-name="&lt;Path&gt;" class="cls-13" d="M642,890.27s.07-.64.1-1.8a42.58,42.58,0,0,0-.17-4.78c-.09-1-.22-2.06-.4-3.18s-.4-2.3-.7-3.51q-.21-.91-.47-1.83c-.16-.62-.36-1.23-.56-1.85-.38-1.26-.86-2.49-1.32-3.73s-1-2.45-1.57-3.64c-.26-.6-.56-1.18-.84-1.75s-.57-1.14-.86-1.69c-.58-1.1-1.18-2.15-1.75-3.14s-1.15-1.9-1.69-2.74a64.12,64.12,0,0,0-3.85-5.41.06.06,0,0,1,.09-.08,64.3,64.3,0,0,1,3.93,5.38c.55.83,1.13,1.75,1.73,2.73s1.2,2,1.79,3.13c.31.54.6,1.11.89,1.68s.59,1.15.87,1.75c.58,1.18,1.1,2.41,1.62,3.64s1,2.49,1.37,3.74c.21.62.42,1.24.59,1.86s.35,1.23.5,1.84c.31,1.21.54,2.4.75,3.54s.34,2.21.44,3.21a43.14,43.14,0,0,1,.23,4.85c0,1.17-.09,1.85-.09,1.85a.31.31,0,0,1-.61-.06Z" transform="translate(-8 -234.28)"/></g><path class="cls-1" d="M836.5,894.1h-2.36l-253.19.4-40.28-.41s1.62-1.41,4.11-3.4c6.5-5.2,19-14.41,24.18-13.14,7.22,1.76,11.44,2.86,19.31-4.87s19.05-15,40.21-2.58,27.55-24.4,53.9-14.58,44.69,34.15,70.26,18.79,57.9-11.29,54.71-.35,17.17,2.3,22.76,8A23.18,23.18,0,0,1,836.5,894.1Z" transform="translate(-8 -234.28)"/><path class="cls-3" d="M834.14,894.11l-253.19.4-40.28-.41s1.62-1.41,4.11-3.4c10.33-4.71,23-8.84,30.29-5.07,13.66,7.1,24.34-17.75,45.71-9.58s31.35,12.42,49.16,4.26,14.26-9,31.65-2.48,6.21-4.26,10.47-2.3,14,12.24,30.52,8.34,50.57-16.5,51.28-6,15.26,7.63,22.71,7.1C823.55,884.42,831.94,888,834.14,894.11Z" transform="translate(-8 -234.28)"/><g id="_Group_69" data-name="&lt;Group&gt;"><g id="_Group_70" data-name="&lt;Group&gt;"><path id="_Path_113" data-name="&lt;Path&gt;" class="cls-1" d="M781.83,865.19h0s-8-4.89-9.86-16.51-2.34-21-2.34-21h0a46,46,0,0,1,11.1,17.6C785.74,859.44,782,865,781.83,865.19Z" transform="translate(-8 -234.28)"/><path id="_Path_114" data-name="&lt;Path&gt;" class="cls-3" d="M781.83,865.19h0s.44-5.11-3-17.17a76,76,0,0,0-9.2-20.37,46,46,0,0,1,11.1,17.6C785.74,859.44,782,865,781.83,865.19Z" transform="translate(-8 -234.28)"/></g><path id="_Path_115" data-name="&lt;Path&gt;" class="cls-13" d="M782.65,885.82s0-3.22-.19-8.06l-.15-3.9c-.06-1.38-.13-2.84-.23-4.35s-.19-3.07-.33-4.65c-.06-.79-.13-1.59-.21-2.39s-.16-1.6-.26-2.4c-.18-1.6-.44-3.19-.73-4.75-.15-.78-.32-1.54-.48-2.31l-.54-2.24c-.38-1.46-.78-2.87-1.2-4.19s-.83-2.56-1.25-3.7a77.93,77.93,0,0,0-3.08-7.44.07.07,0,0,1,.12-.06,78.11,78.11,0,0,1,3.13,7.44c.42,1.14.85,2.38,1.27,3.7s.83,2.73,1.23,4.19l.56,2.24c.16.76.34,1.53.49,2.31.3,1.56.57,3.16.76,4.76q.16,1.2.27,2.4c.09.8.16,1.6.23,2.39.14,1.58.26,3.14.35,4.65s.18,3,.25,4.36l.18,3.91c.19,4.84.24,8.07.24,8.07a.22.22,0,0,1-.44,0Z" transform="translate(-8 -234.28)"/></g><g id="_Group_71" data-name="&lt;Group&gt;"><g id="_Group_72" data-name="&lt;Group&gt;"><path id="_Path_116" data-name="&lt;Path&gt;" class="cls-1" d="M798.59,845a75.06,75.06,0,0,1-3.26,18.18c-3,9-9.18,12.32-9.18,12.32-1.61-1.68-3.23-5.67,0-15.75s8.58-15.45,9.46-15.49-.68,3.22-.75,3.38h0a5.66,5.66,0,0,0,1.86-1.1,17.8,17.8,0,0,0,1.42-1.77A.28.28,0,0,1,798.59,845Z" transform="translate(-8 -234.28)"/><path id="_Path_117" data-name="&lt;Path&gt;" class="cls-3" d="M794.84,847.61h0a117.24,117.24,0,0,0-5,11.22,52.67,52.67,0,0,0-3.7,16.63c-1.61-1.68-3.23-5.67,0-15.75s8.58-15.45,9.46-15.49S794.91,847.45,794.84,847.61Z" transform="translate(-8 -234.28)"/></g><path id="_Path_118" data-name="&lt;Path&gt;" class="cls-13" d="M785.15,884.56s.17-2.25.53-5.62c.18-1.68.41-3.65.7-5.74s.63-4.33,1.09-6.55c.22-1.11.5-2.21.81-3.28s.66-2.11,1-3.11c.71-2,1.45-3.83,2.12-5.38,1.33-3.11,2.35-5.13,2.35-5.13a0,0,0,0,1,.08,0s-1,2-2.3,5.15c-.65,1.56-1.37,3.4-2.06,5.39-.34,1-.67,2-1,3.1s-.57,2.16-.78,3.27c-.44,2.21-.76,4.44-1,6.54s-.48,4.06-.64,5.74c-.33,3.37-.48,5.61-.48,5.61a.22.22,0,1,1-.44,0Z" transform="translate(-8 -234.28)"/></g><g id="_Group_73" data-name="&lt;Group&gt;"><g id="_Group_74" data-name="&lt;Group&gt;"><path id="_Path_119" data-name="&lt;Path&gt;" class="cls-1" d="M762.93,849.72a19.82,19.82,0,0,0-.6,6.84c.27,4.16,1.1,5.37,1.1,5.37a14.08,14.08,0,0,0,4-4.46c1.21-2.48.88-6.39.88-6.39S765.25,847.52,762.93,849.72Z" transform="translate(-8 -234.28)"/><path id="_Path_120" data-name="&lt;Path&gt;" class="cls-1" d="M778.54,871.91s-3,.17-8.11-7.06-7.72-14.24-7.5-15.12a1.51,1.51,0,0,1,.39-.64c.92-.92,3.51-1.45,9,5.24C780.12,863.75,778.54,871.91,778.54,871.91Z" transform="translate(-8 -234.28)"/><path id="_Path_121" data-name="&lt;Path&gt;" class="cls-3" d="M778.54,871.91s-3,.17-8.11-7.06-7.72-14.24-7.5-15.12a1.51,1.51,0,0,1,.39-.64c1.77.94,5.25,3.51,9.42,10.39C778.81,869.5,778.54,871.91,778.54,871.91Z" transform="translate(-8 -234.28)"/></g><path id="_Path_122" data-name="&lt;Path&gt;" class="cls-13" d="M779.78,883s.05-.46.07-1.29a30.45,30.45,0,0,0-.12-3.42c-.06-.71-.16-1.47-.28-2.27s-.29-1.65-.5-2.51q-.15-.65-.34-1.31c-.11-.44-.26-.88-.4-1.33-.27-.9-.61-1.78-.94-2.67s-.72-1.76-1.12-2.6c-.19-.43-.4-.84-.6-1.25s-.4-.82-.62-1.21c-.41-.79-.84-1.54-1.25-2.24s-.82-1.36-1.21-2a45.86,45.86,0,0,0-2.76-3.87,0,0,0,0,1,.07-.06,46,46,0,0,1,2.81,3.85c.39.6.81,1.25,1.23,1.95s.86,1.45,1.28,2.24c.22.39.43.79.63,1.2s.42.82.62,1.25c.41.84.79,1.72,1.16,2.6s.7,1.78,1,2.67c.15.44.3.89.42,1.33s.25.88.36,1.32c.22.87.39,1.72.53,2.53s.24,1.58.31,2.3a30.86,30.86,0,0,1,.16,3.47c0,.84-.06,1.32-.06,1.32a.22.22,0,0,1-.44,0Z" transform="translate(-8 -234.28)"/></g><g id="_Group_75" data-name="&lt;Group&gt;"><g id="_Group_76" data-name="&lt;Group&gt;"><path id="_Path_123" data-name="&lt;Path&gt;" class="cls-1" d="M680.18,863.42h0S669.4,856.86,667,841.28s-3.13-28.21-3.13-28.21h0a61.71,61.71,0,0,1,14.88,23.61C685.44,855.7,680.38,863.14,680.18,863.42Z" transform="translate(-8 -234.28)"/><path id="_Path_124" data-name="&lt;Path&gt;" class="cls-3" d="M680.18,863.42h0s.59-6.86-4-23a101.87,101.87,0,0,0-12.34-27.33,61.71,61.71,0,0,1,14.88,23.61C685.44,855.7,680.38,863.14,680.18,863.42Z" transform="translate(-8 -234.28)"/></g><path id="_Path_125" data-name="&lt;Path&gt;" class="cls-13" d="M681.28,891.1s0-4.32-.26-10.81l-.21-5.23c-.08-1.86-.18-3.81-.31-5.84s-.26-4.11-.44-6.23c-.08-1.06-.18-2.13-.29-3.2s-.22-2.15-.35-3.22c-.24-2.15-.59-4.27-1-6.37-.2-1-.43-2.07-.64-3.09l-.72-3c-.52-2-1-3.84-1.61-5.62s-1.12-3.44-1.67-5a104.53,104.53,0,0,0-4.13-10,.09.09,0,0,1,.16-.08,104.77,104.77,0,0,1,4.2,10c.56,1.52,1.14,3.19,1.71,5s1.12,3.66,1.65,5.62l.75,3c.22,1,.46,2.06.66,3.1.4,2.09.76,4.24,1,6.39q.21,1.61.37,3.23c.12,1.07.22,2.14.31,3.21.19,2.12.34,4.22.47,6.24s.24,4,.34,5.84l.24,5.24c.26,6.49.32,10.82.32,10.82a.29.29,0,0,1-.59,0Z" transform="translate(-8 -234.28)"/></g><g id="_Group_77" data-name="&lt;Group&gt;"><g id="_Group_78" data-name="&lt;Group&gt;"><path id="_Path_126" data-name="&lt;Path&gt;" class="cls-1" d="M702.67,836.29a100.67,100.67,0,0,1-4.37,24.39c-4,12-12.31,16.53-12.31,16.53-2.16-2.25-4.34-7.61,0-21.13s11.51-20.72,12.69-20.77-.91,4.32-1,4.54h0a7.59,7.59,0,0,0,2.5-1.47A23.88,23.88,0,0,0,702,836,.37.37,0,0,1,702.67,836.29Z" transform="translate(-8 -234.28)"/><path id="_Path_127" data-name="&lt;Path&gt;" class="cls-3" d="M697.64,839.84h0s-2,3.49-6.68,15.05a70.65,70.65,0,0,0-5,22.31c-2.16-2.25-4.34-7.61,0-21.13s11.51-20.72,12.69-20.77S697.74,839.62,697.64,839.84Z" transform="translate(-8 -234.28)"/></g><path id="_Path_128" data-name="&lt;Path&gt;" class="cls-13" d="M684.64,889.41s.23-3,.72-7.54c.24-2.26.55-4.89.93-7.7s.85-5.81,1.46-8.78c.3-1.48.67-3,1.09-4.39s.88-2.83,1.36-4.17c1-2.68,1.95-5.13,2.84-7.22,1.79-4.18,3.15-6.88,3.15-6.88a.06.06,0,0,1,.11.05s-1.34,2.72-3.08,6.9c-.87,2.09-1.84,4.56-2.76,7.24-.46,1.34-.9,2.73-1.31,4.16s-.76,2.89-1,4.38c-.59,3-1,6-1.38,8.77s-.64,5.44-.86,7.7c-.44,4.51-.65,7.53-.65,7.53a.29.29,0,1,1-.59,0Z" transform="translate(-8 -234.28)"/></g><g id="_Group_79" data-name="&lt;Group&gt;"><g id="_Group_80" data-name="&lt;Group&gt;"><path id="_Path_129" data-name="&lt;Path&gt;" class="cls-1" d="M654.83,842.68a26.58,26.58,0,0,0-.81,9.18c.37,5.58,1.47,7.2,1.47,7.2a18.89,18.89,0,0,0,5.39-6c1.62-3.33,1.18-8.57,1.18-8.57S657.95,839.72,654.83,842.68Z" transform="translate(-8 -234.28)"/><path id="_Path_130" data-name="&lt;Path&gt;" class="cls-1" d="M675.77,872.43s-4,.22-10.87-9.48-10.36-19.1-10.06-20.28a2,2,0,0,1,.52-.86c1.23-1.23,4.7-2,12.12,7C677.9,861.49,675.77,872.43,675.77,872.43Z" transform="translate(-8 -234.28)"/><path id="_Path_131" data-name="&lt;Path&gt;" class="cls-3" d="M675.77,872.43s-4,.22-10.87-9.48-10.36-19.1-10.06-20.28a2,2,0,0,1,.52-.86c2.37,1.26,7,4.71,12.63,13.93C676.14,869.2,675.77,872.43,675.77,872.43Z" transform="translate(-8 -234.28)"/></g><path id="_Path_132" data-name="&lt;Path&gt;" class="cls-13" d="M677.44,887.29s.07-.62.1-1.73a40.85,40.85,0,0,0-.16-4.59c-.08-.95-.21-2-.38-3.05s-.39-2.21-.67-3.37q-.2-.87-.45-1.76c-.15-.59-.35-1.18-.54-1.78-.37-1.21-.82-2.39-1.27-3.58s-1-2.35-1.51-3.49c-.25-.57-.53-1.13-.81-1.68s-.54-1.09-.83-1.62c-.55-1.06-1.13-2.06-1.68-3s-1.1-1.82-1.62-2.63a61.52,61.52,0,0,0-3.7-5.19.06.06,0,0,1,.09-.07,61.69,61.69,0,0,1,3.77,5.16c.53.8,1.08,1.68,1.66,2.62s1.15,1.94,1.72,3c.29.52.57,1.06.85,1.61s.57,1.1.83,1.68c.55,1.13,1.05,2.31,1.55,3.49s.94,2.39,1.32,3.59c.2.59.4,1.19.57,1.79s.34,1.18.48,1.77c.3,1.16.52,2.31.72,3.39s.32,2.12.42,3.08a41.39,41.39,0,0,1,.22,4.65c0,1.12-.08,1.78-.08,1.78a.29.29,0,0,1-.59-.05Z" transform="translate(-8 -234.28)"/></g></g><g id="Layer_Icon_2" data-name="Layer_Icon 2"><circle class="cls-1" cx="300.47" cy="351.63" r="52.59" transform="translate(-9.05 -233.37) rotate(-0.17)"/><path class="cls-13" d="M286.13,347.6a1.68,1.68,0,0,1-1.18-.47c-5.5-5.29-10.36-.57-10.9,0a1.69,1.69,0,0,1-2.45-2.33,12.12,12.12,0,0,1,7.79-3.52,10.92,10.92,0,0,1,7.9,3.42,1.69,1.69,0,0,1-1.17,2.91Z" transform="translate(-8 -234.28)"/><path class="cls-13" d="M314.77,347.51a1.69,1.69,0,0,1-1.23-2.85,12.12,12.12,0,0,1,7.79-3.52,10.94,10.94,0,0,1,7.9,3.42,1.69,1.69,0,1,1-2.34,2.44,7.56,7.56,0,0,0-5.48-2.48A8.79,8.79,0,0,0,316,347,1.69,1.69,0,0,1,314.77,347.51Z" transform="translate(-8 -234.28)"/><path class="cls-13" d="M300.32,370.73c-13.24,0-17-8.64-17.11-9a1.69,1.69,0,0,1,3.12-1.3c.13.31,3.13,7,14,6.92s13.54-6.68,13.65-7a1.69,1.69,0,0,1,3.16,1.19C317,361.95,313.59,370.69,300.32,370.73Z" transform="translate(-8 -234.28)"/></g><g id="Layer_Icon_1" data-name="Layer_Icon 1"><rect class="cls-1" x="1082.57" y="413.87" width="100.43" height="125.87" rx="6.59" ry="6.59"/><polygon class="cls-13" points="1098.41 431.68 1100.15 437.04 1105.8 437.04 1101.23 440.36 1102.98 445.73 1098.41 442.41 1093.85 445.73 1095.59 440.36 1091.03 437.04 1096.67 437.04 1098.41 431.68"/><polygon class="cls-13" points="1119.81 431.68 1121.55 437.04 1127.2 437.04 1122.63 440.36 1124.38 445.73 1119.81 442.41 1115.24 445.73 1116.99 440.36 1112.42 437.04 1118.07 437.04 1119.81 431.68"/><polygon class="cls-13" points="1141.21 431.68 1142.95 437.04 1148.6 437.04 1144.03 440.36 1145.77 445.73 1141.21 442.41 1136.64 445.73 1138.39 440.36 1133.82 437.04 1139.46 437.04 1141.21 431.68"/><rect class="cls-6" x="1091.21" y="465.67" width="83.16" height="2.27"/><rect class="cls-13" x="1091.21" y="477.94" width="83.16" height="2.27"/><rect class="cls-6" x="1091.21" y="490.21" width="83.16" height="2.27"/><rect class="cls-13" x="1091.21" y="502.48" width="83.16" height="2.27"/><rect class="cls-6" x="1104.11" y="514.75" width="57.36" height="2.27"/></g></svg>
